<?xml version="1.0" standalone="no"?>
<!DOCTYPE svg PUBLIC "-//W3C//DTD SVG 20010904//EN"
 "http://www.w3.org/TR/2001/REC-SVG-20010904/DTD/svg10.dtd">
<svg version="1.0" xmlns="http://www.w3.org/2000/svg"
 width="816.000000pt" height="816.000000pt" viewBox="0 0 816.000000 816.000000"
 preserveAspectRatio="xMidYMid meet">
<metadata>
Created by potrace 1.14, written by Peter Selinger 2001-2017
</metadata>
<g transform="translate(0.000000,816.000000) scale(0.100000,-0.100000)"
fill="#000000" stroke="none">
<path d="M4040 8141 c-14 -10 -45 -29 -70 -42 -25 -13 -60 -35 -77 -48 -18
-13 -33 -20 -33 -16 0 4 -7 2 -15 -5 -12 -10 -143 -87 -285 -168 -25 -14 -199
-115 -388 -224 -188 -109 -347 -198 -352 -198 -6 0 -10 -4 -10 -9 0 -5 -10
-13 -22 -17 -13 -3 -34 -14 -48 -24 -14 -9 -45 -28 -70 -42 -49 -28 -347 -200
-557 -321 -72 -42 -147 -85 -165 -95 -18 -11 -61 -36 -95 -56 -34 -20 -66 -36
-71 -36 -6 0 -12 -3 -14 -8 -3 -6 -93 -61 -193 -116 -52 -29 -85 -48 -268
-154 -263 -153 -550 -319 -590 -341 -21 -12 -50 -29 -64 -38 -13 -9 -39 -24
-56 -33 l-32 -17 -3 -2029 -2 -2028 27 -23 c16 -12 32 -22 36 -23 4 0 49 -24
100 -54 96 -56 108 -63 247 -142 47 -26 87 -51 90 -54 3 -3 23 -14 45 -26 22
-11 80 -44 128 -72 49 -29 93 -52 98 -52 5 0 9 -4 9 -10 0 -5 4 -10 10 -10 5
0 47 -22 92 -48 46 -27 218 -127 383 -222 165 -95 311 -180 325 -188 14 -9 28
-17 32 -17 4 0 13 -6 19 -12 7 -7 16 -13 20 -13 3 0 40 -20 80 -44 169 -99
274 -160 279 -161 3 0 23 -12 45 -26 22 -14 47 -29 55 -33 8 -4 24 -12 35 -19
11 -7 63 -37 115 -67 52 -30 109 -63 125 -72 17 -10 45 -26 63 -35 17 -9 32
-20 32 -25 0 -4 6 -8 13 -8 8 0 55 -25 105 -55 50 -30 96 -55 102 -55 5 0 10
-4 10 -10 0 -5 4 -10 9 -10 5 0 107 -57 228 -127 120 -70 236 -137 258 -149
22 -12 99 -56 170 -97 l130 -76 45 26 c25 14 65 37 90 50 25 14 50 28 55 33 6
4 30 19 55 33 25 13 88 49 140 80 52 30 165 94 250 143 85 49 157 92 158 96 2
5 7 8 12 8 8 0 79 40 390 220 107 62 220 126 250 143 30 17 63 37 73 45 9 8
17 11 17 6 0 -5 4 -4 8 1 4 6 18 16 31 23 13 8 39 22 57 32 18 11 51 30 73 44
22 15 43 26 46 26 3 0 29 15 58 33 29 19 57 35 62 37 9 3 43 22 100 57 11 7
43 24 70 39 28 14 57 32 66 40 8 8 18 14 21 14 4 0 39 19 80 43 40 24 93 55
118 69 25 14 133 76 240 138 107 62 215 124 240 138 25 14 78 45 118 69 41 24
75 43 78 43 2 0 27 15 56 33 29 19 60 37 68 40 8 4 29 15 45 25 35 22 105 61
155 88 19 11 37 22 40 25 3 4 15 9 28 13 12 4 22 12 22 17 0 5 5 9 10 9 6 0
29 12 53 28 l42 27 -1 2020 c0 1112 -4 2026 -8 2033 -4 6 -26 23 -49 36 -23
13 -193 111 -377 217 -184 105 -348 200 -365 209 -16 10 -129 75 -250 145
-121 70 -238 137 -260 150 -22 13 -80 46 -130 75 -49 29 -115 66 -145 83 -30
17 -66 38 -79 49 -13 10 -27 18 -31 18 -6 0 -310 173 -350 200 -8 5 -40 23
-70 40 -30 16 -73 41 -95 54 -44 26 -342 199 -390 226 -90 51 -443 255 -506
292 -41 24 -81 47 -89 51 -8 4 -24 13 -35 20 -56 34 -292 167 -295 167 -3 0
-16 -9 -30 -19z m94 -311 c4 0 23 -11 44 -23 20 -13 57 -35 82 -49 66 -37 101
-57 237 -137 68 -39 127 -71 133 -71 5 0 10 -4 10 -9 0 -5 8 -11 18 -14 9 -4
42 -21 73 -39 30 -18 172 -100 315 -183 142 -82 261 -153 262 -157 2 -4 12 -8
22 -8 9 0 23 -7 30 -15 7 -8 16 -15 21 -15 5 0 38 -18 74 -40 36 -22 70 -40
75 -40 6 0 10 -4 10 -10 0 -5 4 -10 9 -10 5 0 49 -23 98 -51 48 -28 104 -61
123 -71 64 -36 501 -289 717 -415 117 -68 217 -123 223 -123 5 0 10 -4 10 -10
0 -5 5 -10 10 -10 6 0 40 -18 76 -40 36 -22 67 -40 69 -40 3 0 273 -156 295
-170 8 -6 29 -17 45 -26 17 -8 50 -27 75 -43 l45 -27 5 -1873 c3 -1030 1
-1879 -3 -1887 -4 -8 -22 -21 -40 -30 -18 -9 -34 -20 -37 -23 -3 -3 -19 -13
-35 -22 -17 -8 -137 -77 -267 -152 -130 -75 -247 -142 -260 -149 -13 -7 -26
-17 -30 -23 -4 -5 -8 -6 -8 -1 0 5 -8 2 -17 -6 -10 -8 -43 -29 -73 -45 -30
-16 -74 -42 -97 -56 -24 -15 -45 -27 -47 -27 -3 0 -38 -19 -78 -43 -96 -57
-203 -120 -254 -149 -23 -13 -139 -79 -258 -148 -274 -158 -244 -141 -491
-283 -115 -66 -248 -143 -295 -170 -47 -27 -105 -61 -129 -75 -25 -14 -67 -38
-93 -53 -27 -16 -53 -29 -58 -29 -6 0 -10 -4 -10 -9 0 -5 -10 -13 -22 -17 -13
-3 -30 -12 -38 -19 -8 -7 -37 -25 -65 -39 -27 -15 -57 -31 -65 -36 -66 -41
-243 -140 -251 -140 -5 0 -9 -4 -9 -8 0 -4 -12 -13 -27 -20 -16 -6 -50 -25
-78 -42 -27 -16 -68 -39 -91 -51 l-41 -21 -46 25 c-25 14 -116 67 -201 116
-85 50 -170 99 -188 109 -18 10 -105 61 -193 112 -88 51 -295 170 -460 265
-165 95 -314 181 -332 191 -53 32 -146 86 -183 107 -19 11 -48 28 -65 38 -16
11 -37 22 -45 26 -8 4 -59 33 -113 65 -55 32 -103 58 -108 58 -5 0 -9 4 -9 10
0 5 -3 9 -7 8 -5 -1 -19 5 -33 14 -14 9 -133 78 -265 154 -132 76 -310 178
-395 227 -85 49 -171 99 -190 110 -19 10 -72 41 -118 68 -45 27 -87 49 -92 49
-6 0 -10 5 -10 10 0 6 -4 10 -9 10 -12 0 -184 99 -191 110 -6 10 -6 3757 0
3763 3 2 50 30 105 62 55 32 114 66 130 76 17 10 39 23 50 29 11 5 43 23 70
40 28 16 64 37 80 46 17 8 48 26 70 39 22 14 47 28 55 32 8 4 70 40 138 80 68
40 128 73 133 73 5 0 9 4 9 8 0 4 12 13 28 19 15 7 45 23 67 36 144 86 688
397 695 397 4 0 10 4 12 8 2 5 39 28 83 52 44 24 82 46 85 50 3 3 24 16 47 27
58 30 87 47 93 54 3 3 20 12 38 20 17 8 32 17 32 20 0 4 8 9 18 13 9 3 35 17
57 31 22 14 52 30 68 36 15 6 27 15 27 20 0 5 3 8 8 7 4 -1 18 5 32 14 36 23
289 168 293 168 2 0 57 32 123 71 65 40 137 82 159 94 57 31 108 60 205 118
104 61 144 84 193 109 20 11 40 24 43 29 3 5 18 0 34 -11 15 -11 31 -20 34
-20z"/>
<path d="M3993 7455 c-59 -18 -99 -42 -139 -83 -33 -34 -63 -80 -65 -99 -1 -5
-6 -16 -11 -27 -6 -10 -11 -44 -12 -75 l-3 -56 -219 -128 c-120 -70 -230 -133
-244 -141 -14 -7 -92 -52 -173 -100 -82 -47 -150 -86 -153 -86 -3 0 -17 -8
-32 -19 -24 -16 -339 -200 -414 -241 -15 -8 -64 -36 -109 -62 -45 -27 -85 -48
-90 -48 -4 0 -14 -6 -21 -13 -7 -7 -60 -39 -117 -72 -58 -33 -130 -75 -160
-93 -31 -18 -69 -40 -86 -48 -16 -8 -68 -38 -115 -66 -152 -91 -208 -119 -215
-108 -3 6 -23 17 -43 26 -224 93 -462 -71 -447 -311 6 -104 67 -206 149 -250
29 -16 36 -26 37 -50 1 -41 1 -2372 0 -2412 -1 -20 -6 -33 -14 -33 -7 0 -36
-21 -65 -46 -75 -66 -105 -135 -106 -240 0 -70 4 -90 27 -137 41 -79 79 -116
161 -152 90 -41 189 -36 283 12 l36 19 174 -101 c96 -55 195 -113 221 -128 26
-15 56 -32 67 -38 11 -5 29 -15 40 -22 11 -7 74 -43 140 -81 66 -38 184 -107
263 -153 79 -46 147 -83 152 -83 6 0 10 -4 10 -10 0 -5 4 -10 9 -10 5 0 75
-38 156 -85 80 -47 165 -96 188 -109 23 -13 97 -55 164 -95 68 -39 127 -71
133 -71 5 0 10 -3 10 -7 0 -5 10 -13 23 -19 58 -29 377 -216 377 -222 1 -4 3
-30 5 -59 6 -86 55 -172 138 -240 9 -7 44 -22 79 -34 137 -46 283 5 367 128
26 38 55 129 47 149 -3 7 -1 16 3 19 5 3 7 14 4 26 -4 15 0 22 16 26 11 3 21
9 21 14 0 5 4 9 9 9 5 0 49 23 98 52 48 28 104 60 123 70 19 11 53 30 75 43
22 14 47 28 55 32 8 3 31 16 50 28 37 23 103 61 160 91 19 11 37 21 40 24 4 5
278 164 388 226 20 11 82 47 137 79 257 149 338 195 346 195 5 0 9 5 9 10 0 6
4 10 10 10 5 0 70 36 146 80 75 44 138 80 141 80 2 0 29 16 59 35 30 19 56 35
58 35 2 0 45 24 95 53 l91 54 58 -28 c92 -45 182 -43 285 6 74 35 142 124 157
205 1 3 5 22 9 42 5 20 6 39 3 42 -2 3 -6 22 -8 43 -4 45 -20 87 -48 127 -28
40 -65 76 -76 76 -6 0 -10 4 -10 10 0 5 -11 12 -25 16 l-25 6 0 1233 0 1232
39 26 c103 69 156 170 152 297 -1 35 -32 130 -42 130 -5 0 -9 6 -9 13 0 15
-39 58 -82 90 -96 70 -230 79 -335 22 l-41 -23 -127 74 c-71 41 -130 74 -132
74 -2 0 -38 21 -81 48 -42 26 -88 53 -102 60 -14 7 -41 22 -60 33 -52 32 -418
243 -475 274 -27 16 -66 38 -85 50 -19 12 -55 33 -80 47 -25 14 -128 74 -230
133 -102 59 -203 117 -225 130 -68 38 -108 61 -163 94 -29 17 -57 31 -62 31
-6 0 -10 5 -10 10 0 6 -4 10 -9 10 -5 0 -55 27 -111 60 -56 33 -106 60 -111
60 -5 0 -9 4 -9 9 0 5 -13 14 -29 19 -21 8 -30 18 -33 41 -2 17 -1 31 3 31 12
0 -29 120 -53 154 -83 119 -222 171 -355 131z m-68 -583 l30 -19 -1 -468 c0
-361 -3 -470 -13 -473 -30 -10 -99 -72 -126 -113 l-29 -46 -928 0 c-510 0
-928 1 -928 2 0 3 57 38 115 70 113 63 140 80 143 87 2 4 7 8 12 8 5 0 48 23
97 51 48 28 104 61 123 72 106 60 311 178 341 196 19 12 41 24 49 28 8 3 26
14 40 23 14 10 57 34 95 55 39 21 72 41 75 44 3 3 25 17 50 30 25 14 142 81
260 149 118 69 231 133 250 144 19 11 58 33 85 49 28 16 61 35 75 42 14 6 27
14 30 18 5 6 112 67 120 68 3 1 19 -7 35 -17z m455 -43 c58 -33 123 -71 145
-83 22 -13 107 -62 188 -110 82 -47 153 -86 158 -86 5 0 9 -4 9 -10 0 -5 5
-10 11 -10 6 0 49 -23 97 -51 48 -29 107 -63 132 -77 25 -13 50 -28 55 -32 6
-4 30 -19 55 -32 25 -14 84 -48 132 -77 48 -28 90 -51 94 -51 4 0 15 -6 23
-14 9 -7 41 -27 71 -43 30 -16 74 -42 97 -56 24 -15 47 -27 53 -27 5 0 10 -4
10 -10 0 -5 5 -10 11 -10 6 0 48 -22 95 -50 47 -27 89 -50 94 -50 6 0 10 -4
10 -10 0 -5 6 -10 13 -10 7 0 19 -6 25 -12 7 -7 16 -13 20 -13 4 0 50 -26 102
-56 52 -31 105 -61 118 -68 12 -6 22 -15 22 -20 0 -5 -413 -8 -917 -8 -810 -1
-920 1 -935 15 -10 8 -18 21 -18 27 0 17 -91 101 -118 109 l-22 7 0 472 0 472
28 17 c15 10 29 18 32 18 3 0 52 -27 110 -61z m-568 -1375 c26 -40 98 -105
128 -116 13 -5 15 -64 13 -464 0 -253 -2 -465 -2 -471 -1 -7 -15 -20 -32 -29
l-31 -16 -152 88 c-83 48 -171 98 -196 112 -25 14 -67 40 -95 57 -27 18 -60
35 -72 39 -13 4 -23 12 -23 18 0 6 -3 9 -6 5 -4 -3 -25 6 -48 22 -22 15 -72
45 -111 66 -38 21 -78 45 -87 53 -10 8 -18 11 -18 7 0 -4 -8 -1 -17 7 -27 22
-160 98 -172 98 -6 0 -11 5 -11 10 0 6 -6 10 -14 10 -7 0 -19 7 -26 15 -6 8
-15 14 -18 12 -4 -1 -18 6 -32 15 -28 17 -389 227 -460 266 -25 14 -62 36 -82
49 -21 12 -40 23 -42 23 -6 0 -129 72 -136 80 -3 3 -35 21 -72 40 -36 19 -65
37 -63 40 2 3 419 6 927 6 l923 0 27 -42z m2420 35 c-4 -3 -32 -19 -62 -35
-30 -16 -57 -31 -60 -35 -5 -5 -102 -62 -205 -119 -22 -12 -92 -53 -155 -90
-63 -36 -239 -138 -390 -225 -151 -87 -287 -166 -301 -176 -14 -10 -29 -16
-33 -12 -3 3 -6 1 -6 -5 0 -7 -4 -12 -10 -12 -5 0 -50 -25 -101 -55 -50 -30
-93 -55 -95 -55 -3 0 -23 -12 -46 -26 -23 -14 -62 -38 -87 -51 -67 -37 -92
-52 -126 -73 -16 -11 -39 -24 -50 -30 -11 -5 -42 -23 -70 -40 -27 -16 -57 -33
-65 -37 -8 -3 -32 -17 -53 -30 -37 -23 -40 -24 -73 -8 l-34 16 0 469 0 468 33
21 c53 33 110 93 121 128 6 18 33 19 941 19 514 0 931 -3 927 -7z m-4317 -287
c33 -19 80 -46 105 -60 25 -13 53 -32 64 -41 10 -9 19 -14 20 -12 0 3 12 -2
26 -11 62 -39 152 -88 161 -88 5 0 9 -4 9 -10 0 -5 4 -10 10 -10 5 0 47 -22
92 -49 46 -27 100 -58 121 -70 71 -40 103 -59 332 -191 127 -73 241 -140 255
-148 14 -9 27 -17 30 -17 3 0 16 -8 30 -17 23 -14 401 -233 533 -307 31 -18
57 -36 58 -39 5 -43 4 -55 -5 -67 -9 -12 -122 -79 -366 -217 -25 -14 -112 -65
-195 -113 -82 -48 -170 -98 -195 -112 l-45 -25 -50 23 c-60 27 -66 29 -130 33
l-50 2 -128 220 c-70 120 -132 228 -138 239 -5 11 -13 27 -19 35 -30 44 -170
292 -170 300 0 6 -4 10 -9 10 -5 0 -11 8 -14 18 -6 18 -48 92 -91 160 -14 23
-26 43 -26 46 0 2 -36 66 -81 142 -94 161 -119 206 -145 254 -11 19 -21 37
-24 40 -3 3 -17 26 -30 53 -14 26 -28 47 -31 47 -4 0 -9 11 -12 25 -4 25 -4
25 22 8 14 -9 53 -32 86 -51z m4400 -43 c-36 -60 -65 -113 -65 -118 0 -4 -7
-16 -15 -26 -9 -11 -79 -130 -156 -265 -78 -135 -191 -330 -251 -435 -61 -104
-120 -206 -131 -225 -37 -66 -169 -295 -209 -362 -22 -38 -43 -68 -47 -69
-113 -10 -112 -9 -176 -38 -45 -21 -53 -21 -75 -9 -14 8 -128 74 -255 148
-126 73 -255 146 -285 163 -30 16 -62 36 -71 43 -8 8 -18 14 -21 14 -4 0 -39
19 -80 43 -68 41 -73 46 -75 80 -2 30 2 38 25 50 68 35 97 53 100 60 2 4 8 7
12 7 5 0 50 24 100 54 49 30 90 51 90 48 0 -4 4 -2 8 3 6 10 84 56 232 138 30
17 57 34 58 39 2 4 7 8 12 8 8 0 72 36 388 218 107 62 198 112 203 112 5 0 9
3 9 8 0 4 10 12 23 18 12 6 114 64 227 129 113 65 266 154 340 197 74 43 138
78 142 78 4 0 -22 -50 -57 -111z m-4667 -149 c30 -52 66 -115 80 -140 14 -25
42 -74 64 -109 21 -34 38 -65 38 -67 0 -3 11 -21 23 -42 13 -20 35 -57 49 -82
52 -92 68 -120 92 -159 15 -22 26 -43 26 -45 0 -2 26 -48 58 -103 32 -54 70
-118 84 -143 60 -107 71 -126 88 -150 10 -14 18 -28 19 -33 0 -4 7 -17 15 -30
14 -23 73 -124 109 -187 10 -19 39 -70 64 -112 40 -69 43 -79 31 -100 -7 -13
-13 -25 -13 -28 -1 -3 -7 -18 -14 -35 -7 -16 -14 -54 -16 -84 -3 -60 -7 -64
-95 -113 -94 -53 -432 -249 -470 -273 -22 -14 -42 -25 -45 -25 -2 0 -49 -26
-104 -59 -97 -58 -99 -58 -127 -42 -16 9 -30 17 -32 18 -3 1 -5 1933 -2 2203
0 61 3 71 12 55 6 -11 36 -63 66 -115z m4947 -1017 l0 -1118 -21 -17 c-12 -10
-27 -18 -34 -18 -6 0 -59 28 -118 62 -59 34 -125 72 -147 84 -51 28 -385 221
-405 234 -8 6 -26 16 -40 22 -14 7 -27 15 -30 18 -3 3 -18 13 -35 22 -26 14
-31 24 -36 70 -7 60 -25 123 -46 155 -13 20 -7 33 78 180 51 87 102 176 114
198 13 22 64 112 116 200 51 88 116 201 144 250 29 50 82 141 118 204 37 62
67 116 67 118 0 3 8 17 19 31 10 15 31 50 45 77 15 28 36 64 47 80 10 17 22
37 26 45 33 65 126 220 131 220 4 0 7 -503 7 -1117z m-2672 -170 l32 -18 0
-1133 c0 -622 -2 -1132 -5 -1132 -3 0 -39 59 -80 131 -95 166 -100 175 -232
404 -61 105 -122 210 -136 235 -52 93 -285 496 -300 520 -9 14 -17 27 -17 30
0 3 -7 16 -16 30 -24 38 -82 139 -118 201 l-31 57 25 48 c20 41 34 98 38 161
1 18 23 36 85 69 29 16 61 34 70 39 9 6 60 35 112 65 52 30 104 60 115 67 11
7 26 15 34 19 13 7 77 43 264 153 49 28 93 51 98 51 5 0 9 5 9 10 0 15 16 12
53 -7z m410 -11 c29 -16 108 -62 177 -102 69 -40 145 -84 170 -98 48 -26 185
-106 210 -122 8 -6 40 -24 70 -40 136 -76 130 -71 130 -109 0 -48 23 -131 46
-166 17 -27 17 -28 0 -59 -10 -17 -32 -56 -49 -86 -17 -30 -33 -57 -37 -60 -4
-3 -9 -10 -11 -16 -3 -8 -134 -237 -230 -402 -9 -15 -28 -49 -43 -77 -16 -27
-32 -54 -36 -60 -4 -5 -19 -30 -33 -55 -13 -25 -49 -88 -79 -140 -249 -431
-329 -569 -365 -632 l-43 -73 0 1145 0 1145 28 17 c37 22 37 22 95 -10z
m-1710 -761 c50 -23 76 -29 137 -30 34 -1 38 -5 83 -82 26 -44 47 -84 47 -90
0 -5 5 -9 10 -9 6 0 10 -4 10 -10 0 -5 21 -44 46 -87 25 -43 62 -107 82 -143
19 -36 41 -72 48 -81 8 -8 14 -18 14 -22 0 -3 20 -40 45 -80 25 -41 45 -78 45
-81 0 -4 14 -27 30 -51 17 -24 30 -46 30 -50 0 -3 12 -24 27 -48 15 -23 28
-44 28 -47 0 -3 8 -16 17 -30 14 -23 182 -314 231 -400 15 -28 148 -259 175
-305 4 -5 -6 -2 -21 8 -55 35 -217 127 -226 127 -5 0 -11 4 -13 8 -3 7 -87 57
-228 135 -30 17 -57 33 -60 36 -5 6 -79 48 -117 65 -13 6 -23 14 -23 19 0 4
-5 7 -11 7 -6 0 -63 31 -127 69 -64 38 -133 78 -152 88 -89 50 -572 330 -629
364 -34 22 -65 39 -68 39 -3 0 -29 14 -57 32 -28 17 -64 39 -81 48 -16 9 -56
32 -88 50 -108 61 -100 91 47 177 60 35 111 63 114 63 3 0 13 6 21 14 9 8 39
26 66 41 28 14 64 34 80 44 17 10 46 27 65 38 19 11 70 41 113 67 43 25 80 46
82 46 1 0 36 20 76 45 41 24 76 43 79 42 3 -2 27 -13 53 -26z m3080 -29 c45
-27 89 -52 97 -56 8 -4 32 -17 52 -29 21 -12 99 -58 175 -101 76 -44 176 -102
223 -130 47 -28 87 -51 90 -51 3 0 19 -10 35 -22 25 -17 30 -28 30 -57 -1 -39
-7 -45 -85 -88 -25 -14 -100 -57 -167 -97 -68 -39 -127 -71 -132 -71 -5 0 -11
-4 -13 -8 -1 -4 -30 -23 -63 -41 -115 -65 -124 -70 -164 -95 -22 -15 -43 -26
-46 -26 -3 0 -29 -15 -58 -33 -29 -19 -56 -35 -62 -37 -5 -1 -26 -13 -45 -25
-31 -19 -121 -71 -215 -123 -16 -9 -32 -19 -35 -22 -3 -3 -23 -14 -45 -25 -22
-11 -44 -24 -50 -28 -9 -7 -95 -57 -350 -203 -33 -19 -67 -39 -75 -44 -13 -8
-122 -71 -303 -174 l-49 -28 24 41 c13 22 73 126 133 232 61 105 121 210 133
232 13 23 58 100 100 172 41 71 82 144 91 160 9 17 19 32 24 33 4 2 7 10 7 17
0 8 6 20 13 27 7 7 18 24 25 38 6 14 16 32 22 40 5 8 43 74 84 145 40 72 83
146 95 165 11 19 24 42 28 50 8 18 89 158 103 180 6 8 16 26 22 40 7 14 13 27
15 29 1 2 17 5 35 7 78 9 106 16 148 38 25 13 51 22 58 20 7 -2 50 -25 95 -52z"/>
</g>
</svg>
