<?xml version="1.0" standalone="no"?>
<!DOCTYPE svg PUBLIC "-//W3C//DTD SVG 20010904//EN"
 "http://www.w3.org/TR/2001/REC-SVG-20010904/DTD/svg10.dtd">
<svg version="1.0" xmlns="http://www.w3.org/2000/svg"
 width="3334.000000pt" height="3334.000000pt" viewBox="0 0 3334.000000 3334.000000"
 preserveAspectRatio="xMidYMid meet">
<metadata>
Created by potrace 1.14, written by Peter Selinger 2001-2017
</metadata>
<g transform="translate(0.000000,3334.000000) scale(0.100000,-0.100000)"
fill="#000000" stroke="none">
<path d="M16638 33320 c-18 -10 -148 -84 -288 -165 -140 -81 -275 -159 -300
-173 -132 -74 -358 -207 -382 -223 -15 -11 -30 -19 -32 -19 -5 0 -85 -46 -451
-258 -33 -19 -73 -42 -90 -52 -16 -9 -75 -43 -130 -75 -55 -32 -118 -68 -140
-80 -22 -13 -80 -46 -130 -75 -49 -29 -106 -62 -125 -73 -132 -75 -367 -211
-375 -217 -5 -4 -30 -19 -55 -32 -76 -43 -122 -68 -215 -123 -49 -29 -207
-120 -350 -202 -143 -83 -300 -174 -350 -203 -49 -29 -108 -62 -130 -74 -22
-13 -125 -72 -230 -133 -361 -209 -460 -266 -504 -291 -25 -14 -68 -38 -95
-55 -28 -16 -67 -39 -86 -49 -189 -106 -716 -414 -718 -420 -2 -5 -9 -8 -15
-8 -7 0 -50 -23 -95 -50 -46 -28 -103 -61 -125 -74 -49 -27 -565 -322 -587
-336 -14 -8 -338 -197 -455 -265 -29 -16 -103 -59 -166 -95 -63 -35 -115 -68
-117 -72 -2 -4 -8 -8 -13 -8 -9 0 -256 -141 -522 -297 -59 -35 -111 -63 -116
-63 -5 0 -11 -3 -13 -7 -1 -5 -19 -17 -38 -27 -19 -10 -62 -35 -95 -54 -33
-19 -78 -45 -100 -57 -22 -13 -80 -46 -130 -75 -49 -29 -108 -63 -130 -75 -22
-13 -80 -46 -130 -75 -49 -29 -110 -64 -134 -78 -25 -14 -68 -38 -95 -55 -28
-16 -66 -38 -83 -48 -76 -43 -107 -62 -293 -169 -107 -62 -210 -121 -228 -131
-18 -11 -93 -54 -165 -96 -73 -42 -152 -87 -177 -101 -25 -14 -61 -35 -80 -47
-19 -12 -55 -33 -80 -47 -74 -42 -172 -99 -215 -125 -22 -13 -48 -26 -57 -30
-10 -3 -18 -9 -18 -14 0 -5 -5 -9 -11 -9 -6 0 -38 -16 -72 -36 -34 -20 -77
-45 -95 -56 -18 -10 -91 -52 -161 -92 -71 -41 -200 -115 -287 -166 -88 -50
-166 -95 -174 -100 -19 -11 -346 -200 -510 -295 -167 -96 -423 -244 -655 -378
-340 -197 -379 -220 -420 -243 -22 -12 -94 -53 -160 -91 -66 -38 -196 -114
-290 -168 -216 -124 -401 -233 -440 -256 -16 -10 -37 -22 -45 -26 -8 -3 -82
-45 -165 -93 -160 -93 -381 -221 -480 -278 -33 -19 -75 -43 -92 -53 -18 -11
-48 -27 -65 -37 -18 -11 -121 -70 -228 -132 -107 -62 -213 -123 -235 -135 -22
-13 -69 -40 -105 -61 l-66 -39 1 -8338 0 -8338 135 -78 c74 -42 212 -122 305
-176 94 -54 190 -109 215 -123 25 -14 57 -33 72 -43 14 -11 29 -19 32 -19 4 0
36 -18 72 -40 36 -22 70 -40 75 -40 5 0 9 -4 9 -10 0 -5 9 -10 19 -10 11 0 21
-4 23 -8 1 -4 57 -39 123 -77 332 -190 518 -298 680 -392 66 -39 140 -82 165
-95 25 -14 101 -58 170 -98 209 -121 520 -300 553 -319 18 -10 67 -39 110 -65
43 -25 80 -46 82 -46 2 0 39 -21 82 -46 101 -60 384 -224 448 -259 28 -16 94
-55 148 -87 55 -32 100 -58 102 -58 2 0 32 -17 66 -38 35 -22 84 -50 109 -64
25 -14 89 -50 143 -81 54 -32 102 -57 107 -57 4 0 10 -4 12 -8 2 -4 89 -57
193 -116 105 -60 269 -155 365 -211 96 -56 195 -113 220 -127 78 -43 113 -64
165 -95 42 -25 437 -254 555 -321 133 -75 166 -95 175 -101 6 -5 35 -22 65
-38 30 -17 71 -39 90 -50 19 -11 51 -29 70 -39 19 -11 37 -21 40 -24 8 -8 111
-70 116 -70 2 0 89 -49 192 -109 103 -60 203 -118 222 -129 19 -11 139 -80
265 -153 127 -73 246 -142 267 -153 20 -12 62 -36 95 -55 32 -19 78 -45 103
-59 25 -14 89 -52 143 -84 55 -32 100 -58 102 -58 2 0 32 -17 66 -38 35 -22
84 -50 109 -64 55 -31 567 -326 785 -453 88 -51 177 -102 197 -114 21 -11 53
-29 70 -40 18 -10 119 -68 223 -128 105 -60 251 -145 325 -188 279 -162 524
-303 805 -465 160 -92 331 -191 380 -220 50 -28 108 -62 130 -75 77 -43 111
-62 188 -109 43 -25 82 -46 87 -46 5 0 10 -3 12 -7 2 -5 23 -18 48 -31 25 -13
74 -41 110 -63 36 -21 81 -47 100 -57 19 -9 37 -20 40 -23 6 -7 185 -109 225
-129 16 -8 32 -17 35 -20 4 -5 73 -46 200 -117 19 -11 80 -46 135 -78 131 -76
322 -186 520 -300 88 -51 195 -113 238 -139 43 -25 80 -46 82 -46 2 0 68 -38
155 -90 8 -5 60 -34 115 -66 55 -31 168 -97 252 -145 83 -49 167 -97 185 -107
41 -24 256 -148 407 -236 62 -36 118 -66 122 -66 5 0 9 -4 9 -10 0 -5 5 -10
10 -10 6 0 95 -49 198 -109 226 -131 252 -146 319 -183 l53 -29 42 23 c24 13
45 26 46 31 2 4 7 7 12 7 5 0 91 48 192 106 101 59 199 115 218 126 19 11 60
35 91 54 31 19 62 34 68 34 6 0 11 5 11 10 0 6 7 10 15 10 8 0 15 5 15 10 0 6
5 10 11 10 9 0 51 24 234 130 17 10 75 43 130 75 55 31 114 65 130 75 17 10
75 43 130 75 55 32 127 73 160 93 33 19 80 46 105 59 25 14 65 38 90 53 25 15
110 64 190 110 80 45 162 93 182 106 21 13 39 24 42 24 2 0 66 37 142 81 77
45 157 91 179 103 22 11 42 24 43 29 2 4 10 7 18 7 8 0 14 5 14 10 0 6 5 10
11 10 5 0 54 25 107 56 53 31 112 65 130 76 18 10 93 53 165 95 317 183 446
258 497 286 30 17 57 34 58 39 2 4 8 8 14 8 5 0 37 16 71 36 34 20 82 48 107
62 25 14 57 33 72 43 14 11 28 19 31 19 3 0 86 47 184 104 98 57 266 154 373
216 107 62 209 120 225 130 17 10 68 39 115 66 47 26 87 50 90 53 3 3 23 15
45 27 52 27 558 319 607 350 21 13 39 24 41 24 3 0 56 30 118 66 63 37 132 77
154 89 22 13 107 62 188 109 82 47 152 86 158 86 5 0 9 5 9 10 0 6 7 10 15 10
8 0 15 5 15 10 0 6 5 10 11 10 6 0 52 24 102 54 51 29 110 64 132 76 69 39
365 210 487 281 64 38 121 69 127 69 6 0 11 3 11 8 0 4 23 18 50 31 28 14 50
29 50 33 0 4 5 8 11 8 6 0 48 22 95 50 47 27 89 50 94 50 6 0 10 4 10 9 0 5 8
11 18 14 9 4 37 18 62 33 89 52 446 258 475 273 17 9 32 19 33 24 2 4 10 7 18
7 8 0 14 5 14 10 0 6 5 10 11 10 6 0 52 24 102 54 51 29 108 63 127 74 19 11
80 45 135 77 55 31 118 68 140 80 22 13 81 47 130 76 50 28 142 82 205 118 63
36 117 69 118 73 2 5 8 8 13 8 5 0 85 44 177 97 541 313 669 387 689 397 13 6
23 14 23 19 0 4 5 7 11 7 6 0 38 16 72 36 34 20 78 46 97 57 163 92 266 153
268 159 2 5 8 8 13 8 8 0 619 349 629 360 3 3 21 13 40 24 42 22 64 35 233
133 73 42 148 85 167 96 140 79 195 112 198 119 2 4 8 8 14 8 5 0 51 24 101
54 51 29 110 64 132 76 140 78 270 156 273 162 2 5 8 8 13 8 6 0 54 25 107 57
53 31 149 86 212 122 63 36 117 69 118 73 2 5 8 8 14 8 5 0 37 16 71 36 34 20
80 47 103 60 22 12 151 87 285 165 134 78 262 151 284 163 22 11 42 24 43 29
2 4 10 7 18 7 8 0 14 5 14 10 0 6 5 10 11 10 6 0 52 24 102 54 51 29 110 64
132 76 69 39 365 210 487 281 64 38 121 69 127 69 6 0 11 3 11 8 0 4 23 18 50
31 28 14 50 29 50 33 0 4 5 8 11 8 6 0 39 17 74 37 l65 38 0 8336 0 8336 -127
74 c-71 41 -137 79 -148 85 -11 6 -64 36 -117 68 -131 75 -285 165 -325 188
-61 34 -98 55 -195 112 -54 31 -100 56 -103 56 -3 0 -11 5 -18 10 -20 17 -198
120 -208 120 -5 0 -9 5 -9 10 0 6 -9 10 -19 10 -11 0 -21 4 -23 8 -1 4 -66 44
-143 88 -77 45 -215 124 -307 177 -92 54 -171 97 -176 97 -6 0 -12 4 -14 8 -1
4 -57 39 -123 76 -175 100 -170 97 -300 173 -66 39 -140 81 -165 95 -25 14
-117 68 -205 119 -88 51 -170 97 -182 103 -13 6 -23 14 -23 19 0 4 -5 7 -11 7
-6 0 -60 29 -120 65 -61 36 -113 65 -115 65 -2 0 -21 11 -42 24 -81 51 -371
216 -380 216 -6 0 -12 4 -14 8 -1 5 -39 29 -83 53 -74 42 -362 208 -570 329
-49 29 -108 62 -130 75 -22 12 -150 86 -284 164 -134 77 -245 141 -247 141 -2
0 -32 17 -66 38 -35 21 -83 50 -108 64 -25 14 -99 57 -165 95 -103 60 -171 99
-260 147 -11 6 -22 14 -25 17 -3 3 -79 48 -170 100 -91 52 -174 99 -185 106
-11 7 -27 15 -34 19 -8 4 -102 59 -209 121 -107 62 -196 113 -197 113 -2 0
-34 18 -71 40 -38 23 -76 45 -84 50 -20 12 -258 149 -295 170 -16 10 -133 77
-260 150 -126 73 -245 141 -262 152 -41 22 -55 30 -283 163 -102 59 -203 117
-225 130 -22 12 -139 80 -260 150 -660 382 -946 545 -954 545 -5 0 -11 4 -13
8 -4 10 -406 242 -419 242 -5 0 -9 5 -9 10 0 6 -4 10 -9 10 -5 0 -55 27 -111
60 -56 33 -103 60 -105 60 -2 0 -25 13 -52 29 -108 65 -362 211 -366 211 -3 0
-29 16 -59 35 -29 19 -62 38 -73 41 -11 4 -22 10 -25 13 -3 4 -117 72 -255
151 -137 79 -275 158 -305 176 -30 18 -75 43 -100 56 -25 13 -47 25 -50 28 -3
3 -88 54 -190 112 -102 58 -199 114 -217 125 -17 10 -119 68 -225 130 -512
295 -637 367 -688 396 -30 17 -57 33 -60 36 -3 4 -23 15 -45 26 -21 11 -90 50
-152 88 -63 37 -116 67 -118 67 -3 0 -33 17 -67 38 -35 21 -83 50 -108 64 -60
34 -88 50 -275 158 -331 192 -679 392 -780 450 -16 10 -58 34 -92 54 -34 20
-66 36 -71 36 -6 0 -12 4 -14 8 -3 7 -29 23 -148 90 -19 10 -70 40 -112 65
l-77 45 -33 -18z m276 -1349 c125 -73 237 -137 249 -144 12 -7 24 -14 27 -17
3 -3 23 -14 45 -25 22 -11 51 -27 65 -36 20 -13 503 -293 650 -377 19 -11 105
-60 190 -109 85 -49 247 -143 360 -208 113 -65 252 -146 310 -180 58 -34 130
-75 160 -92 30 -17 123 -70 205 -118 83 -48 173 -99 200 -114 28 -14 52 -28
55 -32 4 -4 39 -25 200 -117 19 -11 62 -35 95 -54 33 -19 132 -76 220 -127 88
-50 167 -96 175 -101 16 -10 175 -102 225 -130 17 -10 127 -73 245 -142 118
-68 312 -180 430 -248 118 -67 232 -133 252 -146 21 -13 40 -24 42 -24 3 0 49
-26 103 -59 54 -32 118 -69 143 -83 25 -14 73 -42 107 -62 34 -20 66 -36 71
-36 6 0 12 -4 14 -8 2 -5 50 -35 108 -67 58 -33 107 -62 110 -65 3 -3 21 -13
40 -24 19 -10 121 -68 227 -130 106 -61 205 -118 220 -126 15 -8 75 -43 133
-76 58 -34 121 -71 140 -82 19 -10 94 -54 166 -96 72 -42 136 -76 142 -76 6 0
12 -4 14 -8 3 -7 37 -28 198 -120 34 -19 131 -75 198 -113 17 -11 47 -27 65
-38 17 -10 147 -85 287 -166 140 -81 329 -191 420 -243 91 -52 179 -102 195
-112 17 -10 101 -59 189 -109 87 -51 233 -135 325 -188 91 -53 180 -104 196
-113 17 -10 75 -43 130 -75 55 -31 116 -66 135 -77 19 -11 76 -44 125 -73 50
-29 106 -62 125 -73 19 -11 64 -37 100 -57 36 -21 83 -48 105 -59 22 -12 42
-23 45 -27 5 -5 104 -63 210 -122 25 -14 91 -52 148 -86 57 -34 106 -61 108
-61 3 0 30 -16 60 -35 30 -19 57 -35 59 -35 3 0 22 -11 43 -23 20 -13 57 -35
82 -49 25 -14 73 -42 107 -62 34 -20 66 -36 71 -36 6 0 12 -4 14 -8 2 -5 30
-23 63 -42 55 -31 452 -260 760 -438 72 -42 148 -85 170 -96 22 -12 42 -24 45
-27 3 -3 88 -53 190 -111 102 -58 226 -130 275 -158 287 -167 468 -270 475
-270 5 0 10 -3 12 -8 2 -6 134 -83 467 -273 25 -15 87 -50 136 -79 50 -29 108
-62 130 -75 22 -12 84 -48 137 -79 53 -31 101 -56 107 -56 5 0 11 -4 13 -8 3
-8 233 -142 243 -142 4 0 13 -6 21 -14 12 -13 14 -1057 14 -7734 l0 -7720
-112 -64 c-62 -36 -200 -116 -307 -178 -107 -61 -215 -124 -240 -138 -25 -14
-127 -72 -226 -130 -99 -57 -227 -131 -285 -164 -58 -34 -122 -72 -142 -84
-21 -13 -39 -24 -41 -24 -2 0 -71 -39 -153 -86 -82 -48 -293 -170 -469 -272
-176 -102 -330 -190 -342 -196 -13 -6 -23 -14 -23 -18 0 -5 -5 -8 -11 -8 -6 0
-38 -16 -72 -36 -74 -44 -116 -68 -177 -102 -25 -14 -57 -33 -72 -43 -14 -11
-29 -19 -32 -19 -3 0 -69 -38 -148 -84 -79 -46 -159 -92 -178 -103 -19 -11
-96 -55 -170 -98 -74 -43 -234 -135 -355 -205 -121 -69 -265 -153 -320 -185
-55 -32 -120 -69 -145 -83 -25 -14 -74 -42 -109 -64 -34 -21 -64 -38 -66 -38
-1 0 -54 -30 -116 -66 -63 -37 -130 -76 -149 -86 -19 -11 -75 -44 -125 -73
-49 -29 -108 -63 -130 -75 -22 -12 -124 -71 -227 -131 -103 -60 -192 -109
-198 -109 -5 0 -10 -4 -10 -10 0 -5 -4 -10 -9 -10 -5 0 -56 -27 -113 -61 -57
-34 -121 -71 -143 -84 -42 -23 -332 -190 -723 -416 -125 -72 -246 -142 -269
-155 -23 -13 -140 -81 -260 -151 -120 -69 -231 -134 -248 -143 -16 -10 -118
-68 -225 -130 -107 -62 -211 -122 -230 -133 -45 -25 -398 -229 -555 -320 -66
-38 -133 -77 -150 -87 -16 -9 -133 -77 -260 -150 -126 -73 -250 -144 -274
-158 -25 -14 -68 -38 -95 -55 -28 -16 -64 -37 -81 -47 -16 -9 -133 -77 -260
-150 -126 -73 -243 -140 -260 -150 -16 -9 -91 -52 -165 -95 -74 -43 -175 -101
-225 -130 -49 -28 -151 -87 -225 -130 -74 -43 -178 -103 -230 -133 -148 -85
-153 -88 -293 -169 -73 -42 -199 -115 -282 -163 -297 -171 -552 -318 -650
-375 -167 -97 -358 -207 -400 -230 -22 -12 -129 -75 -239 -139 -109 -64 -200
-116 -203 -116 -2 0 -29 -16 -59 -35 -30 -19 -56 -35 -58 -35 -1 0 -70 -39
-152 -86 -82 -48 -169 -98 -194 -112 -25 -14 -89 -52 -143 -84 -55 -32 -100
-58 -102 -58 -2 0 -39 -21 -82 -46 -43 -26 -94 -56 -113 -67 -19 -11 -86 -49
-149 -85 l-113 -66 -32 18 c-17 10 -44 26 -61 36 -50 29 -593 343 -700 405
-136 79 -612 353 -649 375 -17 9 -89 51 -161 92 -305 176 -1042 602 -1070 618
-16 9 -65 38 -108 64 -43 25 -80 46 -82 46 -2 0 -65 36 -139 80 -75 44 -144
84 -153 87 -10 4 -20 9 -23 13 -3 3 -129 77 -280 165 -151 87 -347 200 -435
250 -88 51 -248 143 -355 205 -107 62 -253 147 -325 188 -71 41 -143 82 -160
92 -16 10 -133 77 -260 150 -126 73 -286 165 -355 205 -69 40 -141 82 -160 93
-19 11 -64 36 -100 57 -36 21 -85 49 -110 63 -25 13 -49 28 -55 32 -5 4 -100
59 -210 122 -207 119 -311 179 -527 304 -69 41 -131 74 -137 74 -6 0 -11 3
-11 8 0 4 -10 12 -23 18 -12 6 -105 59 -207 118 -102 60 -210 122 -240 138
-30 17 -59 34 -65 38 -8 7 -260 152 -385 223 -42 23 -269 154 -290 167 -14 9
-303 176 -399 231 -26 15 -86 50 -136 79 -49 29 -108 62 -130 75 -59 33 -253
145 -520 300 -55 32 -120 69 -145 83 -25 14 -92 53 -150 87 -58 34 -242 141
-410 238 -168 96 -361 208 -430 247 -145 84 -178 104 -240 138 -25 14 -61 35
-80 47 -19 12 -55 33 -80 47 -60 34 -83 47 -308 177 -106 61 -207 120 -225
130 -17 10 -55 32 -83 48 -27 17 -70 41 -95 55 -24 14 -132 76 -239 138 -107
62 -208 120 -225 130 -16 9 -75 43 -130 75 -148 86 -334 194 -380 220 -22 12
-68 39 -102 59 -34 20 -66 36 -71 36 -6 0 -12 4 -14 8 -2 7 -107 68 -283 167
-22 13 -86 50 -143 84 -57 34 -105 61 -107 61 -2 0 -32 17 -66 38 -35 22 -84
50 -109 64 -25 14 -82 46 -128 73 l-82 48 0 7722 0 7722 45 24 c25 13 45 27
45 31 0 5 5 8 11 8 6 0 83 42 172 94 89 51 223 128 297 171 74 43 205 119 290
168 85 49 175 101 200 115 25 14 74 42 109 64 34 21 65 38 67 38 2 0 48 26
101 58 54 32 121 71 148 87 141 78 280 161 283 167 2 5 8 8 14 8 5 0 51 24
101 54 51 29 112 65 137 79 25 14 171 98 325 187 154 89 296 171 315 182 89
51 514 297 590 341 47 27 103 60 125 72 22 13 80 46 128 74 49 28 93 51 98 51
5 0 9 5 9 10 0 6 4 10 9 10 5 0 45 21 88 46 43 26 92 55 110 65 17 10 134 77
260 150 125 72 244 141 263 151 154 88 266 153 270 158 6 6 83 48 117 64 13 6
23 14 23 19 0 4 5 7 10 7 6 0 79 40 163 89 124 72 438 253 572 331 17 9 86 49
153 89 68 39 127 71 132 71 6 0 10 5 10 10 0 6 4 10 9 10 4 0 91 48 192 106
101 59 200 115 219 126 19 11 60 35 91 54 31 19 62 34 68 34 6 0 11 5 11 10 0
6 7 10 15 10 8 0 15 5 15 10 0 6 5 10 10 10 10 0 431 239 440 250 3 3 20 12
38 19 17 8 32 17 32 22 0 5 4 9 9 9 8 0 129 67 236 130 17 10 68 39 115 66 47
27 87 52 88 56 2 4 8 8 13 8 5 0 53 25 107 56 53 31 117 68 142 82 25 14 74
42 109 64 34 21 64 38 66 38 1 0 96 55 211 121 115 67 228 132 251 145 23 13
108 63 190 110 81 48 173 100 203 117 30 17 57 34 58 39 2 4 8 8 13 8 8 0 85
43 304 170 85 49 425 245 455 262 19 11 71 41 115 67 44 26 87 51 95 55 8 4
24 12 35 19 11 7 49 29 85 50 36 21 72 42 80 47 17 10 355 206 620 358 96 55
258 148 359 206 101 58 187 106 192 106 5 0 9 5 9 10 0 6 4 10 9 10 4 0 60 30
122 66 63 37 130 76 149 86 53 30 612 353 715 414 169 99 860 497 915 527 30
17 57 34 58 39 2 4 8 8 13 8 5 0 75 38 156 85 81 47 153 83 159 81 5 -2 113
-63 238 -135z"/>
<path d="M16597 30494 c-1 -1 -24 -5 -52 -8 -167 -19 -272 -50 -430 -126 -131
-64 -238 -140 -346 -246 -65 -63 -170 -192 -195 -239 -6 -11 -24 -45 -41 -75
-49 -88 -111 -259 -128 -355 -3 -16 -9 -48 -13 -70 -4 -22 -7 -108 -7 -192 l0
-151 -134 -79 c-74 -43 -155 -90 -180 -104 -44 -25 -192 -110 -761 -439 -146
-84 -290 -166 -320 -183 -30 -17 -56 -34 -58 -39 -2 -4 -8 -8 -13 -8 -6 0
-112 -59 -237 -131 -125 -73 -243 -140 -262 -151 -19 -11 -51 -29 -70 -40
-178 -104 -630 -365 -785 -453 -44 -25 -323 -187 -420 -243 -92 -53 -127 -73
-170 -97 -22 -13 -80 -46 -128 -74 -49 -28 -93 -51 -98 -51 -5 0 -9 -4 -9 -10
0 -5 -4 -10 -9 -10 -4 0 -60 -30 -122 -66 -63 -37 -132 -77 -154 -89 -22 -13
-96 -56 -165 -95 -69 -40 -141 -81 -160 -92 -71 -41 -372 -215 -585 -338 -121
-70 -238 -138 -260 -150 -22 -12 -128 -73 -235 -135 -107 -62 -289 -168 -405
-234 -115 -66 -215 -125 -222 -131 -7 -5 -15 -10 -18 -10 -3 0 -166 -93 -363
-206 -196 -114 -373 -216 -392 -226 -19 -11 -76 -44 -127 -74 -51 -30 -97 -54
-102 -54 -6 0 -11 -4 -11 -10 0 -5 -7 -10 -15 -10 -8 0 -15 -4 -15 -10 0 -5
-5 -10 -11 -10 -6 0 -52 -24 -102 -54 -88 -51 -117 -68 -217 -124 -25 -14
-124 -71 -220 -127 -96 -56 -213 -123 -260 -150 -47 -26 -179 -103 -295 -170
-115 -68 -226 -132 -245 -142 -19 -11 -96 -55 -170 -98 -74 -43 -157 -90 -185
-106 l-50 -27 -45 33 c-64 46 -204 117 -298 150 -282 98 -627 92 -900 -16
-118 -47 -259 -124 -319 -174 -70 -58 -187 -171 -224 -215 -144 -172 -255
-418 -287 -639 -15 -98 -5 -431 13 -460 1 -3 6 -23 9 -43 9 -57 62 -204 102
-283 122 -239 301 -426 541 -561 l108 -60 1 -5040 c0 -2771 -2 -5044 -4 -5051
-2 -7 -43 -33 -90 -59 -48 -26 -120 -71 -162 -102 -88 -64 -235 -211 -279
-279 -17 -27 -36 -55 -43 -63 -7 -8 -19 -26 -26 -40 -32 -59 -72 -140 -73
-145 0 -2 -11 -29 -24 -60 -14 -30 -27 -66 -29 -80 -3 -13 -7 -28 -10 -33 -3
-5 -8 -22 -10 -38 -3 -16 -8 -40 -11 -54 -3 -14 -9 -43 -13 -65 -9 -50 -9
-348 0 -395 30 -163 52 -233 108 -357 135 -293 393 -542 682 -657 81 -33 172
-62 223 -72 22 -4 47 -9 55 -10 119 -26 356 -23 495 6 87 18 93 20 191 55 98
36 192 83 278 141 42 28 52 31 65 20 9 -7 36 -24 61 -38 25 -13 132 -75 238
-136 106 -62 196 -112 198 -112 3 0 17 -8 32 -19 22 -15 316 -186 462 -268 19
-11 70 -41 113 -67 43 -25 80 -46 82 -46 2 0 49 -27 104 -60 56 -33 104 -60
107 -60 2 0 17 -8 32 -19 15 -10 90 -55 167 -99 77 -44 241 -138 365 -210 124
-71 241 -139 260 -150 19 -10 75 -43 123 -71 49 -28 93 -51 98 -51 5 0 9 -4 9
-9 0 -5 9 -13 20 -16 11 -4 48 -23 83 -44 34 -21 82 -49 107 -63 25 -14 90
-51 145 -83 225 -130 356 -206 392 -226 21 -12 43 -25 48 -29 6 -4 35 -21 65
-37 30 -17 126 -71 212 -122 87 -50 162 -91 167 -91 5 0 11 -4 13 -8 2 -5 39
-29 83 -54 88 -49 581 -333 605 -347 8 -6 58 -34 110 -64 52 -30 167 -96 255
-147 88 -51 174 -101 192 -111 17 -10 149 -86 291 -169 143 -82 265 -150 270
-150 6 0 12 -4 14 -8 2 -4 98 -62 213 -128 116 -67 271 -156 345 -199 74 -43
145 -84 157 -89 13 -6 23 -14 23 -18 0 -5 4 -8 9 -8 6 0 36 -15 68 -34 32 -18
78 -45 103 -58 25 -14 107 -62 184 -107 76 -44 140 -81 141 -81 2 0 39 -21 82
-46 43 -26 92 -55 108 -64 17 -10 145 -84 285 -165 465 -268 715 -412 750
-432 19 -11 70 -41 113 -67 43 -25 80 -46 82 -46 2 0 60 -34 130 -75 69 -41
130 -75 135 -75 5 0 10 -3 12 -7 2 -5 23 -18 48 -31 25 -13 74 -41 110 -63 36
-22 76 -45 90 -52 25 -12 25 -12 25 -157 0 -129 9 -241 19 -259 2 -3 7 -22 10
-41 15 -95 143 -400 168 -400 4 0 8 -6 8 -13 0 -7 8 -22 18 -33 9 -11 29 -36
43 -57 60 -87 198 -216 315 -295 118 -79 319 -165 439 -188 22 -4 47 -9 55
-10 113 -24 351 -23 470 1 114 23 137 28 148 37 6 6 12 8 12 5 0 -8 45 10 175
68 137 62 338 219 445 350 135 164 230 371 276 600 10 50 18 160 18 263 1 108
2 114 26 132 14 11 28 20 32 20 4 0 48 25 98 55 50 30 93 55 95 55 2 0 28 14
57 31 64 38 230 135 278 162 130 73 266 152 270 156 3 3 23 15 45 27 90 47
470 269 473 276 2 4 8 8 14 8 5 0 69 34 141 77 73 42 146 84 162 93 42 24 195
113 355 205 74 43 149 85 165 95 79 45 383 221 490 283 66 38 140 81 165 95
25 14 88 50 140 80 110 64 269 155 320 184 19 11 76 44 127 74 51 30 97 54
102 54 6 0 11 3 11 8 0 4 10 12 23 18 12 6 126 71 252 144 127 73 246 142 265
153 19 11 109 62 200 115 91 52 208 120 260 150 52 30 148 86 213 123 65 38
122 69 127 69 6 0 10 5 10 10 0 6 4 10 10 10 7 0 559 314 720 410 38 22 407
236 425 246 47 26 431 247 440 254 6 4 30 18 55 32 25 14 163 93 308 176 144
84 266 152 271 152 5 0 11 3 13 8 2 4 97 61 212 127 114 66 232 134 260 150
28 17 83 48 121 69 39 22 72 42 75 45 3 3 28 17 55 31 28 14 52 28 53 33 2 4
7 7 12 7 5 0 44 21 87 46 43 26 166 97 273 159 107 61 245 141 306 177 61 35
119 68 128 71 11 5 36 -5 69 -27 95 -62 259 -140 322 -152 11 -2 31 -8 45 -13
14 -5 43 -13 65 -17 22 -4 47 -9 55 -10 112 -24 362 -23 470 1 14 3 38 8 54
10 16 3 45 10 65 17 20 7 38 13 41 13 20 3 97 34 158 62 210 98 404 265 533
459 21 32 43 64 49 71 5 7 10 14 10 16 0 3 20 47 44 98 46 99 74 183 92 279 2
14 7 36 9 50 18 87 23 277 10 365 -4 28 -9 59 -10 70 -8 49 -16 86 -25 109 -5
15 -7 26 -5 26 9 0 -49 148 -92 235 -77 154 -211 321 -349 436 -47 39 -162
113 -231 148 l-63 31 0 5054 0 5055 89 47 c227 119 427 321 544 549 34 67 70
144 72 155 0 3 6 21 13 41 7 20 14 45 16 55 2 11 9 37 14 59 40 150 45 379 13
540 -6 28 -13 61 -16 75 -29 143 -125 341 -233 484 -79 104 -277 286 -311 286
-6 0 -11 3 -11 8 0 4 -21 19 -47 32 -27 14 -50 28 -53 31 -21 26 -257 111
-335 120 -5 1 -20 5 -32 10 -87 33 -402 29 -543 -8 -14 -3 -29 -7 -35 -8 -124
-29 -278 -97 -399 -177 l-59 -39 -80 47 c-45 25 -95 54 -111 64 -109 62 -233
134 -311 179 -49 29 -162 94 -250 144 -88 51 -161 95 -163 99 -2 5 -8 8 -13 8
-5 0 -107 57 -227 126 -119 70 -242 140 -272 157 -30 17 -84 48 -119 69 -34
21 -65 38 -67 38 -2 0 -32 17 -66 38 -35 21 -88 52 -118 69 -30 17 -122 70
-205 118 -156 90 -597 345 -650 375 -97 54 -376 216 -407 236 -21 13 -40 24
-42 24 -2 0 -40 21 -83 46 -73 44 -357 208 -433 251 -19 11 -122 71 -228 132
-106 61 -207 120 -225 130 -48 27 -216 124 -357 206 -69 40 -141 82 -160 93
-19 11 -64 36 -100 57 -105 60 -115 66 -330 190 -113 64 -217 126 -232 136
-15 11 -29 19 -32 19 -3 0 -55 29 -116 65 -61 36 -130 76 -153 89 -23 13 -170
98 -327 188 -157 91 -463 267 -680 393 -217 125 -453 262 -525 303 -71 42
-140 80 -152 86 -13 6 -23 14 -23 19 0 4 -9 7 -19 7 -11 0 -21 4 -23 8 -1 5
-39 29 -83 54 -44 24 -125 71 -180 103 -124 72 -408 236 -455 262 -19 11 -118
69 -220 128 -102 59 -203 117 -225 130 -22 12 -69 39 -105 60 -36 21 -90 52
-120 69 l-55 32 -1 124 c-1 251 -38 416 -135 613 -135 275 -397 524 -659 626
-19 8 -48 19 -65 26 -34 14 -137 45 -169 51 -11 2 -32 6 -45 9 -69 13 -324 28
-334 19z m-620 -2412 c32 -21 83 -51 113 -66 30 -16 60 -32 65 -37 7 -5 10
-655 9 -1926 -1 -1055 -2 -1921 -3 -1924 0 -3 -32 -20 -71 -39 -38 -19 -70
-37 -70 -42 0 -4 -5 -8 -11 -8 -6 0 -31 -14 -57 -32 -168 -114 -330 -297 -422
-474 l-43 -84 -3826 0 -3826 0 85 49 c47 27 90 53 95 58 6 5 26 17 45 26 19
10 50 27 69 38 37 22 273 159 336 194 22 13 81 46 130 75 50 29 110 64 135 78
25 14 93 54 152 89 59 34 109 63 111 63 3 0 35 18 71 40 36 22 126 75 198 117
73 42 160 92 193 111 33 19 80 46 105 60 25 13 52 31 61 38 8 8 19 14 22 14 4
0 121 66 260 146 138 81 266 155 282 164 17 9 112 65 213 123 101 59 188 107
193 107 5 0 9 5 9 10 0 6 5 10 11 10 6 0 49 23 97 51 48 29 105 62 127 74 22
13 81 46 130 75 50 29 104 60 120 70 17 9 75 43 130 75 131 76 210 122 264
152 24 14 104 61 178 104 75 43 136 79 138 79 2 0 61 34 131 76 71 42 147 86
169 99 22 12 96 55 165 95 69 40 145 84 170 98 25 13 72 41 105 60 33 19 87
51 120 70 33 19 76 44 95 55 84 49 203 116 251 142 11 5 19 13 19 17 0 5 4 8
9 8 5 0 97 50 203 111 106 62 207 120 223 129 17 9 102 59 190 110 88 51 170
98 182 104 13 6 23 14 23 19 0 4 5 7 11 7 6 0 64 32 129 70 65 39 121 70 125
70 3 0 22 11 43 24 20 13 80 48 132 78 52 31 145 84 205 120 61 35 117 67 125
71 8 4 29 16 45 26 30 18 448 260 534 309 25 14 68 38 95 55 65 38 89 52 211
122 55 32 127 74 160 93 33 19 80 46 103 59 24 14 65 38 90 53 26 16 50 29 54
29 4 1 33 -16 65 -37z m1582 -6 c42 -24 92 -52 111 -63 19 -11 121 -69 225
-130 105 -61 267 -154 360 -208 94 -54 184 -106 200 -115 17 -10 59 -34 95
-55 36 -21 79 -45 95 -55 17 -10 116 -67 220 -127 273 -157 511 -295 655 -378
69 -40 141 -82 160 -93 34 -19 134 -76 195 -112 280 -162 492 -284 535 -308
25 -13 50 -28 55 -32 6 -4 84 -50 175 -102 272 -157 497 -287 635 -366 321
-185 372 -215 410 -237 22 -12 139 -80 260 -150 121 -70 238 -137 260 -150 65
-37 213 -122 484 -279 139 -80 256 -146 259 -146 3 0 20 -11 38 -25 18 -14 35
-25 38 -25 5 0 429 -243 594 -341 45 -27 84 -49 86 -49 2 0 43 -24 92 -53 49
-29 103 -59 119 -67 17 -8 32 -17 35 -21 3 -3 25 -16 50 -30 25 -14 122 -70
215 -124 94 -54 184 -106 200 -115 17 -10 71 -41 120 -70 50 -29 108 -62 130
-75 22 -12 127 -73 232 -134 106 -61 197 -111 203 -111 5 0 10 -3 10 -8 0 -4
21 -18 48 -32 26 -13 63 -34 82 -46 70 -42 210 -124 214 -124 2 0 30 -16 62
-35 l58 -35 -3840 0 -3839 0 -30 63 c-67 140 -209 318 -340 427 -53 44 -188
131 -247 159 l-48 23 0 1931 0 1932 48 22 c26 12 79 42 117 67 39 25 74 46 79
46 5 0 43 -20 85 -44z m-2061 -5700 c6 -29 94 -177 148 -247 26 -35 80 -96
119 -135 68 -69 227 -194 246 -194 6 0 15 -5 22 -11 7 -6 39 -25 72 -42 l60
-32 0 -1923 0 -1923 -81 -43 c-44 -24 -101 -57 -126 -74 l-46 -32 -25 20 c-14
11 -28 20 -31 20 -3 0 -118 65 -255 145 -137 80 -265 153 -283 164 -18 10
-120 69 -226 130 -106 61 -207 120 -225 130 -17 10 -55 32 -83 48 -27 17 -70
41 -95 55 -44 26 -152 88 -456 264 -89 52 -166 94 -172 94 -5 0 -11 4 -13 8
-2 4 -41 29 -88 56 -124 70 -146 83 -245 141 -49 29 -106 62 -125 73 -19 10
-63 36 -97 56 -34 20 -64 36 -68 36 -3 0 -11 5 -18 10 -7 6 -64 41 -127 77
-63 36 -155 90 -205 118 -49 29 -106 62 -125 73 -19 10 -58 33 -86 49 -45 27
-114 67 -169 97 -11 6 -51 30 -90 53 -67 39 -602 349 -675 390 -19 11 -85 49
-145 84 -61 35 -124 71 -140 79 -17 8 -32 17 -35 21 -3 3 -84 50 -180 106 -96
55 -215 124 -265 153 -49 28 -108 62 -130 75 -22 12 -68 39 -102 59 -34 20
-66 36 -71 36 -6 0 -12 3 -14 8 -1 4 -46 32 -98 61 -52 30 -198 115 -324 188
-125 73 -230 133 -233 133 -3 0 -17 8 -31 18 -15 11 -52 33 -82 49 -84 46
-274 157 -280 163 -3 3 -18 12 -35 20 -16 8 -57 31 -90 51 -33 19 -80 47 -105
61 -45 26 -218 125 -275 158 -16 9 -52 30 -80 47 -27 16 -57 32 -65 36 -8 5
-24 13 -35 20 -74 45 -198 117 -201 117 -2 0 -36 20 -76 44 -201 119 -527 306
-536 306 -6 0 -12 4 -14 8 -1 5 -101 64 -220 132 -120 68 -218 127 -218 130 0
3 1720 5 3822 5 3728 0 3823 0 3826 -19z m10064 13 c-7 -6 -177 -104 -702
-406 -124 -71 -313 -180 -420 -243 -107 -62 -208 -120 -225 -130 -16 -9 -118
-68 -225 -129 -107 -62 -262 -152 -345 -199 -82 -47 -152 -88 -155 -91 -3 -4
-18 -13 -35 -21 -49 -25 -539 -308 -552 -320 -7 -5 -15 -10 -18 -10 -3 0 -47
-24 -98 -54 -51 -30 -109 -63 -129 -75 -179 -100 -273 -156 -276 -163 -2 -5
-8 -8 -14 -8 -5 0 -37 -16 -71 -36 -34 -20 -81 -48 -105 -61 -23 -13 -93 -53
-154 -89 -61 -35 -112 -64 -115 -64 -2 0 -16 -8 -31 -19 -15 -10 -106 -64
-202 -119 -96 -55 -191 -110 -210 -121 -19 -11 -42 -24 -50 -28 -8 -4 -60 -34
-115 -66 -55 -33 -118 -70 -140 -82 -53 -29 -760 -438 -805 -465 -8 -5 -134
-78 -280 -161 -146 -84 -335 -192 -420 -242 -206 -119 -214 -124 -257 -148
-21 -12 -78 -45 -128 -74 -49 -29 -110 -64 -135 -78 -25 -14 -128 -73 -230
-132 -102 -59 -203 -118 -225 -130 -22 -13 -80 -46 -130 -75 -49 -29 -103 -60
-120 -70 -16 -9 -56 -32 -88 -51 -33 -19 -75 -43 -95 -55 -21 -11 -55 -31 -77
-43 -61 -35 -429 -248 -523 -303 -46 -26 -86 -48 -89 -48 -2 0 -25 -14 -49
-31 l-45 -31 -62 40 c-34 22 -90 55 -124 73 l-63 33 0 1930 1 1931 49 23 c114
54 277 175 375 281 69 75 143 179 195 274 l49 92 3835 0 c2109 0 3832 -3 3828
-6z m557 -901 c-7 -13 -40 -70 -74 -128 -34 -58 -73 -125 -87 -150 -14 -25
-110 -191 -213 -370 -104 -179 -196 -340 -207 -357 -38 -68 -62 -110 -317
-550 -144 -249 -270 -467 -280 -485 -10 -18 -34 -60 -53 -93 -19 -33 -69 -118
-110 -190 -41 -71 -89 -154 -107 -183 -17 -29 -31 -57 -31 -62 0 -6 -4 -10
-10 -10 -5 0 -10 -5 -10 -11 0 -6 -22 -48 -50 -93 -27 -46 -53 -91 -57 -102
-4 -10 -11 -23 -16 -29 -8 -9 -123 -209 -637 -1100 -117 -203 -245 -426 -285
-495 -267 -460 -335 -580 -335 -589 0 -6 -4 -11 -10 -11 -5 0 -10 -7 -10 -15
0 -8 -4 -15 -10 -15 -5 0 -10 -5 -10 -11 0 -6 -15 -37 -34 -68 -19 -31 -43
-73 -55 -93 -37 -67 -57 -101 -116 -203 -75 -128 -161 -278 -193 -335 -13 -25
-28 -49 -32 -55 -8 -10 -233 -401 -257 -445 -7 -14 -62 -108 -121 -210 l-108
-185 -134 -1 c-122 -1 -186 -6 -246 -18 -74 -15 -168 -43 -241 -72 -85 -33
-254 -124 -280 -150 -17 -16 -25 -17 -38 -5 -11 10 -211 126 -260 151 -17 8
-32 17 -35 20 -8 8 -111 70 -116 70 -2 0 -89 49 -192 109 -103 60 -203 118
-222 129 -19 11 -62 35 -95 54 -60 35 -225 130 -300 173 -22 12 -112 64 -200
115 -88 51 -176 102 -195 113 -19 11 -71 41 -115 66 -44 26 -105 61 -135 78
-30 17 -107 61 -170 98 -63 37 -250 145 -415 240 -165 95 -351 202 -414 239
-62 36 -115 66 -116 66 -2 0 -60 34 -129 75 -69 41 -128 75 -131 75 -2 0 -26
14 -52 30 l-48 31 -1 142 -2 142 97 57 c136 79 600 348 637 368 120 68 199
116 202 122 2 5 9 8 15 8 6 0 53 25 103 55 51 30 97 55 103 55 6 0 11 5 11 10
0 6 4 10 8 10 5 0 114 61 243 136 129 75 254 147 278 161 25 13 189 108 365
210 177 102 337 195 356 206 114 64 196 112 200 116 3 4 28 18 55 33 81 43
449 256 462 267 7 6 15 11 19 11 3 0 47 24 97 54 51 29 182 105 292 168 110
63 331 191 490 283 160 92 310 179 334 193 25 14 68 38 95 55 28 16 66 38 84
48 57 34 94 55 292 169 107 62 215 124 240 138 25 14 61 35 80 47 19 12 55 33
80 47 103 58 129 73 215 123 50 29 135 78 190 110 55 32 114 66 130 75 83 48
165 95 205 118 25 14 126 72 225 130 99 58 200 116 225 130 25 14 99 56 165
95 66 38 136 79 155 89 19 11 76 44 125 73 50 29 106 62 125 73 217 123 633
364 672 389 21 12 40 23 42 23 3 0 46 25 96 55 50 30 92 55 94 55 2 0 52 29
112 64 60 36 110 65 112 65 1 1 -3 -9 -9 -21z m-18689 -79 c58 -34 123 -71
145 -84 22 -12 123 -71 225 -130 101 -58 202 -117 225 -130 22 -12 128 -73
235 -135 107 -62 236 -137 285 -165 50 -29 149 -86 220 -127 337 -195 396
-229 427 -246 54 -31 226 -131 323 -187 50 -29 106 -62 125 -73 67 -37 515
-297 540 -313 8 -5 44 -25 80 -45 36 -20 79 -44 95 -54 41 -24 152 -88 195
-112 19 -11 40 -24 45 -28 9 -6 66 -38 155 -86 19 -11 37 -22 40 -25 3 -3 32
-20 65 -39 33 -18 128 -73 212 -121 83 -49 168 -98 187 -109 67 -38 101 -57
152 -87 27 -17 70 -41 95 -55 24 -14 130 -75 236 -137 106 -61 197 -111 202
-111 5 0 11 -4 13 -8 3 -7 63 -42 463 -271 88 -51 167 -96 175 -101 32 -20
516 -300 590 -342 25 -13 171 -98 325 -187 154 -90 298 -173 320 -186 22 -12
82 -46 133 -76 50 -30 104 -61 120 -69 15 -9 59 -34 97 -57 39 -22 87 -50 108
-62 51 -29 76 -43 287 -166 102 -59 203 -117 225 -130 22 -12 69 -39 105 -60
36 -21 85 -49 110 -63 25 -14 89 -52 143 -84 53 -32 99 -58 101 -58 2 0 32
-17 66 -38 l63 -38 1 -151 1 -152 -90 -52 c-49 -29 -142 -81 -205 -117 -63
-36 -116 -69 -118 -74 -2 -4 -8 -8 -13 -8 -13 0 -173 -92 -177 -102 -2 -4 -8
-8 -13 -8 -11 0 -466 -260 -511 -291 -14 -11 -29 -19 -33 -19 -3 0 -45 -23
-93 -51 -48 -29 -105 -62 -127 -74 -22 -13 -139 -80 -260 -150 -215 -125 -267
-155 -680 -393 -110 -63 -204 -118 -210 -122 -5 -4 -31 -19 -57 -34 -110 -61
-147 -81 -213 -121 -38 -23 -90 -53 -115 -67 -54 -30 -76 -43 -250 -143 -74
-43 -141 -82 -148 -88 -9 -7 -21 -4 -42 11 -16 12 -33 22 -39 22 -5 0 -11 4
-13 9 -7 19 -273 147 -273 131 0 -2 -10 2 -23 9 -13 7 -31 14 -40 16 -9 3 -35
9 -57 14 -40 10 -67 15 -135 28 -19 3 -97 6 -174 7 l-138 1 -118 205 c-65 113
-122 210 -127 215 -4 6 -15 23 -23 40 -8 16 -50 91 -94 165 -43 74 -101 176
-129 225 -28 50 -54 91 -59 93 -4 2 -8 9 -8 15 0 7 -29 61 -65 120 -36 60 -65
110 -65 111 0 2 -30 55 -66 117 -37 63 -119 204 -182 314 -63 110 -173 301
-245 425 -117 202 -162 280 -217 375 -9 17 -51 89 -92 160 -42 72 -135 234
-208 360 -73 127 -140 244 -150 260 -9 17 -50 86 -90 155 -39 69 -142 247
-228 395 -131 228 -281 487 -352 610 -9 17 -60 104 -112 195 -53 91 -137 237
-188 325 -135 234 -148 255 -225 390 -31 55 -65 114 -75 130 -33 56 -279 483
-465 805 -21 36 -47 81 -58 100 -11 19 -31 55 -45 80 -14 25 -51 89 -83 143
-32 53 -55 97 -51 97 4 0 54 -27 112 -61z m-1013 -521 c41 -74 117 -205 203
-353 10 -16 39 -68 66 -115 27 -47 52 -86 56 -88 4 -2 8 -8 8 -13 0 -5 59
-112 131 -237 73 -125 142 -245 154 -267 24 -42 113 -195 149 -256 11 -20 50
-87 86 -150 35 -63 68 -115 72 -117 4 -2 8 -8 8 -13 0 -6 53 -101 117 -212 64
-111 206 -357 316 -547 109 -190 233 -403 274 -474 41 -70 83 -142 92 -160 10
-17 44 -76 76 -131 32 -55 67 -116 78 -135 10 -19 69 -120 130 -225 60 -104
121 -210 135 -235 27 -48 248 -431 312 -540 21 -36 69 -119 107 -185 58 -100
131 -225 178 -307 6 -9 22 -39 36 -65 15 -26 88 -153 163 -282 75 -128 136
-235 136 -237 0 -3 11 -21 23 -42 29 -44 250 -427 315 -542 14 -25 71 -124
127 -220 56 -96 135 -232 174 -302 l73 -127 -31 -45 c-17 -24 -31 -49 -31 -54
0 -6 -4 -12 -9 -14 -20 -7 -153 -318 -136 -318 2 0 0 -12 -6 -27 -6 -16 -13
-41 -15 -58 -2 -16 -8 -50 -12 -75 -4 -25 -7 -110 -7 -190 l0 -144 -40 -21
c-85 -44 -470 -270 -473 -277 -2 -4 -9 -8 -15 -8 -6 0 -67 -33 -136 -74 -70
-41 -149 -86 -176 -102 -28 -15 -78 -45 -113 -66 -34 -21 -64 -38 -67 -38 -2
0 -28 -14 -57 -31 -63 -38 -229 -134 -276 -161 -18 -10 -92 -52 -163 -93 -71
-41 -189 -109 -261 -152 -73 -42 -218 -126 -323 -186 -104 -61 -208 -120 -230
-133 -22 -12 -134 -76 -249 -143 -115 -67 -212 -121 -217 -121 -4 0 -9 -3 -11
-7 -1 -5 -19 -17 -38 -27 -19 -10 -62 -35 -95 -54 -33 -19 -76 -43 -95 -54
-19 -11 -92 -54 -162 -94 -100 -59 -133 -73 -153 -68 -14 3 -25 10 -25 14 0 4
-47 33 -105 65 l-105 57 0 4664 c0 2565 2 4664 4 4664 3 0 18 -24 33 -52z
m20587 -4630 c-1 -2548 -2 -4636 -3 -4640 0 -3 -34 -24 -73 -45 -100 -54 -120
-66 -136 -80 -7 -7 -16 -13 -19 -13 -7 0 -87 45 -198 110 -44 26 -100 59 -125
72 -25 14 -112 65 -195 113 -82 48 -175 101 -205 117 -30 17 -59 34 -65 38 -5
4 -30 19 -55 32 -25 14 -104 59 -177 101 -72 42 -147 85 -165 95 -18 11 -61
36 -95 56 -34 20 -66 36 -71 36 -6 0 -12 4 -14 8 -1 5 -55 38 -118 74 -63 35
-191 109 -285 163 -93 54 -188 108 -210 119 -22 12 -42 23 -45 26 -3 3 -117
71 -255 150 -137 79 -322 185 -410 236 -88 51 -265 153 -394 227 l-234 134 -2
164 c-2 147 -6 189 -20 239 -2 8 -7 30 -10 48 -3 18 -12 52 -21 75 -8 23 -16
47 -18 52 -17 65 -78 193 -133 276 -24 36 -43 69 -43 73 0 4 29 57 65 117 36
61 65 115 65 120 0 5 5 9 10 9 6 0 10 9 10 19 0 11 4 21 8 23 7 3 31 42 120
198 11 19 95 166 187 325 92 160 190 331 218 380 27 50 58 101 67 115 9 14 30
50 47 80 40 74 180 316 210 362 12 21 23 39 23 42 0 2 45 82 101 177 56 96
111 192 124 214 12 22 99 173 192 335 94 162 180 311 191 330 11 19 54 94 96
167 42 73 76 137 76 142 0 5 4 11 8 13 5 2 22 28 39 58 17 30 72 127 123 215
123 213 112 193 240 415 296 513 345 598 368 640 14 25 28 50 32 55 4 6 69
118 145 250 76 132 170 296 210 365 40 69 130 226 202 350 71 124 183 317 248
430 158 273 210 364 285 495 54 95 79 135 84 135 0 0 0 -2085 0 -4632z m-9402
-707 c59 -33 111 -61 117 -61 5 0 11 -4 13 -8 3 -8 165 -103 223 -132 16 -8
32 -17 35 -20 3 -3 115 -70 250 -147 135 -77 348 -200 473 -272 126 -73 243
-140 260 -150 18 -10 136 -78 262 -152 127 -73 248 -142 270 -153 22 -12 42
-24 45 -27 3 -3 32 -20 65 -39 33 -18 139 -79 235 -135 96 -56 195 -113 220
-127 25 -14 68 -39 96 -55 27 -17 72 -42 99 -58 27 -15 151 -86 275 -158 124
-72 242 -140 262 -151 l36 -21 -1 -120 c-1 -127 11 -261 28 -315 3 -10 8 -29
10 -41 18 -95 100 -282 170 -389 l46 -71 -22 -37 c-22 -37 -151 -259 -187
-324 -11 -18 -43 -73 -72 -123 -29 -49 -62 -108 -75 -130 -12 -22 -39 -68 -59
-102 -20 -34 -36 -66 -36 -72 0 -6 -3 -11 -7 -11 -5 0 -13 -10 -19 -23 -6 -12
-71 -125 -144 -252 -73 -126 -155 -268 -181 -315 -27 -47 -54 -92 -59 -100
-10 -16 -85 -147 -110 -192 -8 -15 -30 -52 -47 -82 -18 -31 -33 -58 -33 -61 0
-3 -5 -11 -10 -18 -13 -15 -32 -47 -352 -602 -146 -253 -301 -521 -343 -595
-43 -74 -102 -175 -130 -225 -29 -49 -117 -203 -197 -341 -80 -138 -157 -271
-171 -295 -13 -24 -41 -73 -62 -109 -21 -36 -59 -101 -84 -145 -25 -44 -50
-87 -56 -96 -5 -9 -32 -54 -58 -100 -26 -46 -52 -91 -57 -99 -6 -8 -59 -100
-118 -205 -60 -104 -129 -224 -154 -265 -24 -41 -47 -82 -51 -90 -4 -8 -13
-24 -20 -35 -14 -24 -96 -166 -125 -215 -10 -19 -45 -79 -76 -132 -31 -53 -56
-102 -56 -107 0 -6 -3 -11 -8 -11 -4 0 -12 -8 -17 -19 -25 -47 -77 -140 -99
-176 -13 -22 -48 -83 -78 -135 -30 -52 -79 -135 -107 -185 -29 -49 -63 -108
-76 -130 -27 -49 -33 -60 -184 -320 -66 -115 -122 -208 -122 -205 -1 3 -2
2117 -3 4698 l-1 4692 70 36 c38 20 97 55 130 78 33 24 62 42 65 41 3 -1 53
-30 112 -64z m-1649 25 c18 -13 68 -43 112 -66 44 -24 84 -47 90 -52 7 -6 10
-1577 10 -4673 0 -2565 -3 -4661 -7 -4657 -3 4 -16 25 -28 47 -22 40 -153 266
-265 460 -32 55 -69 120 -83 144 -14 25 -99 173 -190 330 -91 157 -190 329
-220 381 -30 52 -63 110 -73 128 -11 17 -29 49 -40 70 -12 20 -42 73 -68 117
-26 44 -50 87 -54 95 -4 8 -15 29 -26 45 -10 17 -50 86 -89 155 -39 69 -76
130 -82 137 -5 7 -10 15 -10 18 0 3 -18 35 -40 71 -22 36 -40 68 -40 70 0 2
-14 27 -31 56 -18 29 -42 71 -54 93 -13 22 -65 112 -115 200 -51 88 -113 196
-138 240 -25 44 -48 82 -51 85 -3 3 -13 19 -21 35 -8 17 -33 62 -56 100 -34
58 -94 162 -294 510 -10 17 -34 59 -55 95 -21 36 -51 90 -68 120 -17 30 -34
57 -39 58 -4 2 -8 8 -8 14 0 5 -34 68 -75 139 -41 71 -75 131 -75 135 0 3 -9
18 -19 33 -11 15 -53 86 -94 157 -40 71 -100 174 -132 229 -32 55 -68 118 -80
140 -13 22 -46 80 -74 128 -28 49 -51 93 -51 98 0 5 -3 9 -7 9 -5 0 -13 10
-19 23 -6 12 -64 114 -129 227 -143 248 -330 573 -356 618 -11 18 -54 93 -96
165 -42 73 -86 151 -99 174 -40 70 -193 337 -204 353 -32 51 -70 121 -70 130
0 5 19 40 43 77 75 118 133 254 161 376 31 135 39 205 40 355 l1 112 140 81
c77 45 199 115 270 157 72 41 144 83 160 92 17 9 86 50 155 90 69 39 231 133
360 208 129 74 252 146 272 159 21 12 40 23 42 23 3 0 46 25 97 55 50 30 93
55 94 55 2 0 39 21 82 46 43 26 93 55 111 66 18 10 93 53 165 95 142 82 233
134 284 164 18 10 119 69 225 130 106 61 208 120 225 130 18 10 119 68 223
129 105 60 195 110 201 110 5 0 9 5 9 10 0 6 6 10 13 11 6 0 50 25 97 54 47
29 91 54 98 54 7 1 28 -10 45 -23z m7172 -3216 c61 -36 231 -133 275 -158 25
-13 50 -28 55 -32 10 -7 343 -200 960 -554 160 -91 297 -170 305 -175 8 -5 85
-50 170 -99 85 -49 227 -131 315 -182 88 -51 178 -103 200 -116 22 -12 85 -48
140 -80 55 -33 114 -66 130 -74 17 -8 32 -17 35 -20 4 -5 121 -73 467 -271
l45 -25 2 -155 1 -154 -30 -19 c-25 -15 -323 -189 -442 -257 -18 -10 -119 -69
-225 -130 -106 -61 -211 -122 -233 -134 -39 -22 -374 -216 -567 -328 -54 -32
-102 -57 -108 -57 -5 0 -10 -4 -10 -10 0 -5 -7 -10 -15 -10 -8 0 -15 -4 -15
-10 0 -5 -5 -10 -10 -10 -9 0 -335 -184 -460 -260 -135 -81 -309 -180 -319
-180 -6 0 -11 -4 -11 -10 0 -5 -4 -10 -9 -10 -5 0 -56 -27 -113 -61 -57 -34
-121 -71 -143 -84 -108 -60 -528 -303 -584 -337 -34 -21 -65 -38 -67 -38 -2 0
-27 -14 -56 -31 -29 -18 -136 -80 -238 -139 -102 -58 -261 -151 -355 -205
-157 -91 -243 -141 -320 -185 -16 -9 -133 -77 -260 -150 -126 -73 -246 -142
-265 -152 -19 -11 -39 -24 -45 -28 -5 -4 -30 -19 -55 -32 -25 -14 -133 -76
-240 -138 -107 -62 -215 -124 -240 -138 -25 -14 -121 -70 -214 -124 -93 -54
-170 -98 -172 -98 -2 0 -28 -16 -58 -35 -30 -19 -57 -35 -59 -35 -3 0 -67 -37
-143 -81 -77 -45 -179 -104 -229 -132 -49 -28 -91 -54 -93 -59 -2 -4 -8 -8
-14 -8 -5 0 -51 -24 -101 -54 -97 -56 -268 -155 -327 -189 -141 -79 -195 -112
-198 -119 -2 -4 -8 -8 -13 -8 -6 0 -54 -25 -107 -56 -53 -31 -114 -66 -135
-78 -66 -38 -237 -136 -482 -279 -132 -77 -243 -141 -247 -143 -3 -2 -1 7 5
21 7 14 15 25 20 25 4 0 7 5 7 10 0 10 75 144 201 358 27 45 49 85 49 87 0 3
16 29 35 59 19 30 35 57 35 60 0 2 34 61 75 131 41 69 75 131 75 136 0 5 5 9
10 9 6 0 10 4 10 9 0 6 29 60 65 122 36 61 65 113 65 116 0 2 11 20 24 41 23
37 151 257 198 342 14 25 56 97 93 160 37 63 80 138 94 165 14 28 29 52 34 53
4 2 7 7 7 12 0 4 24 47 53 96 29 49 70 121 91 159 21 39 42 75 46 80 4 6 17
27 29 48 39 69 58 101 188 327 72 124 140 242 152 263 11 20 30 53 41 73 11
19 60 104 109 187 86 148 299 517 338 587 11 19 55 94 97 167 42 73 76 137 76
143 0 5 4 10 8 10 5 0 20 21 33 48 13 26 38 70 56 99 18 29 33 54 33 57 0 3
17 34 38 68 21 35 50 83 64 108 14 25 48 85 77 133 28 49 51 90 51 93 0 2 16
28 35 58 19 30 35 58 35 61 0 3 11 22 23 43 13 20 77 129 142 242 136 236 129
224 229 397 42 73 76 137 76 142 0 5 4 11 8 13 7 3 32 44 120 198 10 19 44 78
75 130 30 52 65 114 78 137 13 22 86 148 162 280 l138 238 137 0 c75 1 155 4
177 7 22 4 58 10 80 13 22 4 58 11 80 17 22 7 43 12 48 14 4 1 9 3 12 4 3 1 8
3 13 4 65 15 265 111 332 159 l44 33 86 -49 c47 -28 99 -58 115 -67z m-12582
83 c23 -15 44 -30 47 -33 7 -8 197 -101 213 -104 7 -2 19 -6 27 -9 18 -7 144
-42 181 -51 66 -14 145 -21 271 -21 l137 0 117 -205 c65 -113 120 -207 123
-210 3 -3 16 -23 27 -45 19 -35 150 -265 174 -305 5 -8 32 -53 58 -100 27 -47
75 -130 107 -185 32 -55 67 -116 78 -135 10 -19 62 -109 115 -200 52 -91 138
-239 190 -330 52 -91 126 -219 165 -285 39 -66 100 -172 136 -235 36 -63 68
-117 71 -120 3 -3 14 -23 26 -45 25 -48 213 -376 224 -390 4 -5 19 -30 32 -55
14 -25 34 -61 45 -80 65 -111 98 -169 118 -205 13 -22 46 -80 75 -130 29 -49
120 -207 202 -350 83 -143 158 -273 168 -290 10 -16 34 -59 55 -95 21 -36 45
-78 55 -95 10 -16 43 -75 74 -130 31 -55 60 -107 65 -115 8 -12 179 -307 310
-534 13 -22 57 -99 99 -171 41 -71 95 -166 120 -210 25 -44 49 -81 54 -83 4
-2 8 -8 8 -13 0 -5 59 -111 131 -236 72 -126 140 -244 151 -263 11 -19 59
-102 107 -185 48 -82 112 -193 142 -245 29 -52 56 -97 59 -100 3 -3 12 -19 21
-35 34 -66 64 -120 69 -125 13 -13 50 -90 43 -90 -4 1 -26 12 -48 25 -22 13
-69 41 -105 62 -36 21 -74 43 -85 50 -11 7 -27 15 -35 19 -8 4 -51 29 -95 55
-44 26 -96 56 -115 66 -19 11 -63 37 -97 57 -34 20 -66 36 -71 36 -6 0 -12 4
-14 8 -1 4 -131 82 -288 172 -157 90 -309 178 -338 194 -29 17 -65 38 -80 46
-15 8 -75 43 -134 78 -58 34 -111 62 -117 62 -6 0 -11 3 -11 8 0 4 -10 12 -23
18 -12 6 -76 42 -142 81 -66 38 -210 122 -320 185 -110 64 -240 139 -290 168
-49 29 -108 62 -130 75 -58 32 -92 52 -265 152 -152 88 -466 269 -525 303 -16
9 -65 38 -108 64 -43 25 -80 46 -82 46 -2 0 -34 18 -71 40 -95 56 -78 46 -289
168 -104 60 -262 151 -350 202 -88 51 -180 104 -205 118 -25 13 -49 28 -55 32
-5 4 -30 19 -55 33 -45 25 -426 244 -677 390 -72 42 -147 85 -165 96 -139 79
-646 372 -791 457 -98 57 -182 104 -187 104 -6 0 -10 5 -10 10 0 6 -4 10 -9
10 -8 0 -432 242 -831 475 -69 40 -199 115 -290 167 -91 52 -226 130 -300 173
-74 43 -149 86 -167 96 -78 44 -112 70 -108 81 8 24 12 153 5 210 l-6 56 111
63 c60 35 112 66 113 71 2 4 8 8 13 8 6 0 99 51 207 114 196 113 288 166 641
370 101 58 187 106 192 106 5 0 9 5 9 10 0 6 4 10 9 10 5 0 49 23 98 51 48 28
104 61 123 72 19 10 125 71 235 135 110 64 214 123 230 131 17 9 32 19 33 24
2 4 10 7 18 7 8 0 14 5 14 10 0 6 5 10 11 10 6 0 64 32 130 70 66 39 124 70
130 70 5 0 9 4 9 9 0 5 8 11 18 14 9 4 37 18 62 33 62 37 296 172 350 202 25
14 61 35 80 47 19 12 52 30 73 40 20 9 37 21 37 26 0 5 5 9 10 9 6 0 92 47
193 105 100 58 185 105 190 105 4 0 26 -12 50 -27z"/>
</g>
</svg>
