<svg width="89" height="103" viewBox="0 0 89 103" fill="none" xmlns="http://www.w3.org/2000/svg">
<path d="M11.8883 36.5457C14.0938 36.5457 15.8817 34.7578 15.8817 32.5523C15.8817 30.3468 14.0938 28.559 11.8883 28.559C9.68289 28.559 7.89502 30.3468 7.89502 32.5523C7.89502 34.7578 9.68289 36.5457 11.8883 36.5457Z" fill="#1E1E1E"/>
<path d="M77.9097 36.5457C80.1152 36.5457 81.903 34.7578 81.903 32.5523C81.903 30.3468 80.1152 28.559 77.9097 28.559C75.7043 28.559 73.9164 30.3468 73.9164 32.5523C73.9164 34.7578 75.7043 36.5457 77.9097 36.5457Z" fill="#1E1E1E"/>
<path d="M77.9097 74.6622C80.1152 74.6622 81.903 72.8743 81.903 70.6689C81.903 68.4634 80.1152 66.6755 77.9097 66.6755C75.7043 66.6755 73.9164 68.4634 73.9164 70.6689C73.9164 72.8743 75.7043 74.6622 77.9097 74.6622Z" fill="#1E1E1E"/>
<path d="M11.8883 74.6622C14.0938 74.6622 15.8817 72.8743 15.8817 70.6689C15.8817 68.4634 14.0938 66.6755 11.8883 66.6755C9.68289 66.6755 7.89502 68.4634 7.89502 70.6689C7.89502 72.8743 9.68289 74.6622 11.8883 74.6622Z" fill="#1E1E1E"/>
<path d="M44.8942 93.7253C47.0997 93.7253 48.8875 91.9374 48.8875 89.732C48.8875 87.5265 47.0997 85.7386 44.8942 85.7386C42.6887 85.7386 40.9009 87.5265 40.9009 89.732C40.9009 91.9374 42.6887 93.7253 44.8942 93.7253Z" fill="#1E1E1E"/>
<path d="M44.8942 17.4825C47.0997 17.4825 48.8875 15.6947 48.8875 13.4892C48.8875 11.2837 47.0997 9.49586 44.8942 9.49586C42.6887 9.49586 40.9009 11.2837 40.9009 13.4892C40.9009 15.6947 42.6887 17.4825 44.8942 17.4825Z" fill="#1E1E1E"/>
<path d="M44.8942 55.6088C47.0997 55.6088 48.8875 53.8209 48.8875 51.6154C48.8875 49.41 47.0997 47.6221 44.8942 47.6221C42.6887 47.6221 40.9009 49.41 40.9009 51.6154C40.9009 53.8209 42.6887 55.6088 44.8942 55.6088Z" fill="#1E1E1E"/>
<path d="M44.8942 36.5457C47.0997 36.5457 48.8875 34.7578 48.8875 32.5523C48.8875 30.3468 47.0997 28.559 44.8942 28.559C42.6887 28.559 40.9009 30.3468 40.9009 32.5523C40.9009 34.7578 42.6887 36.5457 44.8942 36.5457Z" fill="#1E1E1E"/>
<path d="M61.5088 65.1306C63.7143 65.1306 65.5022 63.3428 65.5022 61.1373C65.5022 58.9319 63.7143 57.1439 61.5088 57.1439C59.3034 57.1439 57.5155 58.9319 57.5155 61.1373C57.5155 63.3428 59.3034 65.1306 61.5088 65.1306Z" fill="#1E1E1E"/>
<path d="M28.3864 65.1306C30.5919 65.1306 32.3798 63.3428 32.3798 61.1373C32.3798 58.9319 30.5919 57.1439 28.3864 57.1439C26.181 57.1439 24.3931 58.9319 24.3931 61.1373C24.3931 63.3428 26.181 65.1306 28.3864 65.1306Z" fill="#1E1E1E"/>
<path d="M44.8942 91.578L10.2852 71.5919V31.6293L44.8942 11.6432L79.5032 31.6293V71.5919L44.8942 91.578ZM15.085 70.6689L40.5317 85.3694L27.8034 63.3234L15.085 70.6689ZM62.1016 63.3234L49.4705 85.2722L74.82 70.6397L62.1016 63.3234ZM46.4973 54.3165V83.9606L59.3324 61.7203L46.4973 54.3165ZM30.5726 61.7203L43.3007 83.7662V54.3748L30.5726 61.7203ZM13.4818 38.5083V67.8997L26.21 60.5543L13.4818 38.5083ZM63.695 60.564L76.326 67.8512V38.7027L63.695 60.564ZM48.1491 51.5863L60.9259 58.9706L73.7123 36.8274L48.1491 51.5863ZM16.251 36.9246L28.9791 58.9706L41.7073 51.6154L16.251 36.9246ZM17.8444 34.1555L43.3007 48.8561V34.1458L17.8444 34.1555ZM46.4973 34.1555V48.8561L71.944 34.1555H46.4973ZM46.4973 30.9589H71.944L46.4973 16.2583V30.9589ZM17.8444 30.9589H43.3007V16.2583L17.8444 30.9589Z" fill="#1E1E1E"/>
<path d="M44.8261 102.344L0.879883 76.9845V26.2369L44.8261 0.858246L88.7918 26.2369V76.9845L44.8261 102.344ZM4.07651 75.1384L44.8261 98.6709L85.634 75.1384V28.083L44.8261 4.55038L4.07651 28.083V75.1384Z" fill="#1E1E1E"/>
</svg>
