<svg width="88" height="102" viewBox="0 0 88 102" fill="none" xmlns="http://www.w3.org/2000/svg">
<path d="M11.0085 35.6874C13.2139 35.6874 15.0019 33.8995 15.0019 31.694C15.0019 29.4886 13.2139 27.7007 11.0085 27.7007C8.803 27.7007 7.01514 29.4886 7.01514 31.694C7.01514 33.8995 8.803 35.6874 11.0085 35.6874Z" fill="white"/>
<path d="M77.0298 35.6874C79.2353 35.6874 81.0232 33.8995 81.0232 31.694C81.0232 29.4886 79.2353 27.7007 77.0298 27.7007C74.8244 27.7007 73.0365 29.4886 73.0365 31.694C73.0365 33.8995 74.8244 35.6874 77.0298 35.6874Z" fill="white"/>
<path d="M77.0298 73.8039C79.2353 73.8039 81.0232 72.016 81.0232 69.8106C81.0232 67.6051 79.2353 65.8172 77.0298 65.8172C74.8244 65.8172 73.0365 67.6051 73.0365 69.8106C73.0365 72.016 74.8244 73.8039 77.0298 73.8039Z" fill="white"/>
<path d="M11.0085 73.8039C13.2139 73.8039 15.0019 72.016 15.0019 69.8106C15.0019 67.6051 13.2139 65.8172 11.0085 65.8172C8.803 65.8172 7.01514 67.6051 7.01514 69.8106C7.01514 72.016 8.803 73.8039 11.0085 73.8039Z" fill="white"/>
<path d="M44.0143 92.867C46.2198 92.867 48.0076 91.0792 48.0076 88.8737C48.0076 86.6682 46.2198 84.8803 44.0143 84.8803C41.8089 84.8803 40.021 86.6682 40.021 88.8737C40.021 91.0792 41.8089 92.867 44.0143 92.867Z" fill="white"/>
<path d="M44.0143 16.6242C46.2198 16.6242 48.0076 14.8364 48.0076 12.6309C48.0076 10.4254 46.2198 8.63757 44.0143 8.63757C41.8089 8.63757 40.021 10.4254 40.021 12.6309C40.021 14.8364 41.8089 16.6242 44.0143 16.6242Z" fill="white"/>
<path d="M44.0143 54.7505C46.2198 54.7505 48.0076 52.9626 48.0076 50.7571C48.0076 48.5517 46.2198 46.7638 44.0143 46.7638C41.8089 46.7638 40.021 48.5517 40.021 50.7571C40.021 52.9626 41.8089 54.7505 44.0143 54.7505Z" fill="white"/>
<path d="M44.0143 35.6874C46.2198 35.6874 48.0076 33.8995 48.0076 31.694C48.0076 29.4886 46.2198 27.7007 44.0143 27.7007C41.8089 27.7007 40.021 29.4886 40.021 31.694C40.021 33.8995 41.8089 35.6874 44.0143 35.6874Z" fill="white"/>
<path d="M60.6289 64.2724C62.8344 64.2724 64.6223 62.4845 64.6223 60.279C64.6223 58.0736 62.8344 56.2856 60.6289 56.2856C58.4235 56.2856 56.6356 58.0736 56.6356 60.279C56.6356 62.4845 58.4235 64.2724 60.6289 64.2724Z" fill="white"/>
<path d="M27.5066 64.2724C29.712 64.2724 31.4999 62.4845 31.4999 60.279C31.4999 58.0736 29.712 56.2856 27.5066 56.2856C25.3011 56.2856 23.5132 58.0736 23.5132 60.279C23.5132 62.4845 25.3011 64.2724 27.5066 64.2724Z" fill="white"/>
<path d="M44.0143 90.7197L9.40534 70.7336V30.771L44.0143 10.7849L78.6233 30.771V70.7336L44.0143 90.7197ZM14.2051 69.8106L39.6518 84.5111L26.9236 62.4652L14.2051 69.8106ZM61.2217 62.4652L48.5907 84.4139L73.9401 69.7814L61.2217 62.4652ZM45.6174 53.4583V83.1023L58.4525 60.862L45.6174 53.4583ZM29.6927 60.862L42.4209 82.908V53.5165L29.6927 60.862ZM12.6019 37.65V67.0414L25.3301 59.696L12.6019 37.65ZM62.8151 59.7057L75.4461 66.9929V37.8444L62.8151 59.7057ZM47.2692 50.728L60.046 58.1123L72.8324 35.9692L47.2692 50.728ZM15.3711 36.0663L28.0992 58.1123L40.8274 50.7571L15.3711 36.0663ZM16.9645 33.2972L42.4209 47.9978V33.2875L16.9645 33.2972ZM45.6174 33.2972V47.9978L71.0641 33.2972H45.6174ZM45.6174 30.1006H71.0641L45.6174 15.4V30.1006ZM16.9645 30.1006H42.4209V15.4L16.9645 30.1006Z" fill="white"/>
<path d="M43.9462 101.485L0 76.1262V25.3786L43.9462 0L87.9119 25.3786V76.1262L43.9462 101.485ZM3.19663 74.2801L43.9462 97.8126L84.7541 74.2801V27.2247L43.9462 3.69213L3.19663 27.2247V74.2801Z" fill="white"/>
</svg>
