<svg width="80" height="80" viewBox="0 0 80 80" fill="none" xmlns="http://www.w3.org/2000/svg">
<path d="M76.6067 0H3.39328C1.51922 0 0 1.51922 0 3.39328V76.6067C0 78.4808 1.51922 80 3.39328 80H76.6067C78.4808 80 80 78.4808 80 76.6067V3.39328C80 1.51922 78.4808 0 76.6067 0Z" fill="white"/>
<path d="M18.4732 30.1528C19.9124 30.1528 21.0792 28.986 21.0792 27.5467C21.0792 26.1074 19.9124 24.9407 18.4732 24.9407C17.0339 24.9407 15.8671 26.1074 15.8671 27.5467C15.8671 28.986 17.0339 30.1528 18.4732 30.1528Z" fill="#0999FF"/>
<path d="M61.6086 30.1528C63.0478 30.1528 64.2146 28.986 64.2146 27.5467C64.2146 26.1074 63.0478 24.9407 61.6086 24.9407C60.1693 24.9407 59.0025 26.1074 59.0025 27.5467C59.0025 28.986 60.1693 30.1528 61.6086 30.1528Z" fill="#0999FF"/>
<path d="M61.6086 55.0527C63.0478 55.0527 64.2146 53.8859 64.2146 52.4466C64.2146 51.0073 63.0478 49.8406 61.6086 49.8406C60.1693 49.8406 59.0025 51.0073 59.0025 52.4466C59.0025 53.8859 60.1693 55.0527 61.6086 55.0527Z" fill="#0999FF"/>
<path d="M18.4732 55.0527C19.9124 55.0527 21.0792 53.8859 21.0792 52.4466C21.0792 51.0073 19.9124 49.8406 18.4732 49.8406C17.0339 49.8406 15.8671 51.0073 15.8671 52.4466C15.8671 53.8859 17.0339 55.0527 18.4732 55.0527Z" fill="#0999FF"/>
<path d="M40.0409 67.506C41.4801 67.506 42.6469 66.3392 42.6469 64.9C42.6469 63.4607 41.4801 62.2939 40.0409 62.2939C38.6016 62.2939 37.4348 63.4607 37.4348 64.9C37.4348 66.3392 38.6016 67.506 40.0409 67.506Z" fill="#0999FF"/>
<path d="M40.0409 17.6994C41.4801 17.6994 42.6469 16.5326 42.6469 15.0934C42.6469 13.6541 41.4801 12.4873 40.0409 12.4873C38.6016 12.4873 37.4348 13.6541 37.4348 15.0934C37.4348 16.5326 38.6016 17.6994 40.0409 17.6994Z" fill="#0999FF"/>
<path d="M40.0409 42.6061C41.4801 42.6061 42.6469 41.4393 42.6469 40.0001C42.6469 38.5608 41.4801 37.394 40.0409 37.394C38.6016 37.394 37.4348 38.5608 37.4348 40.0001C37.4348 41.4393 38.6016 42.6061 40.0409 42.6061Z" fill="#0999FF"/>
<path d="M40.0409 30.1528C41.4801 30.1528 42.6469 28.986 42.6469 27.5467C42.6469 26.1074 41.4801 24.9407 40.0409 24.9407C38.6016 24.9407 37.4348 26.1074 37.4348 27.5467C37.4348 28.986 38.6016 30.1528 40.0409 30.1528Z" fill="#0999FF"/>
<path d="M50.8926 48.8294C52.3318 48.8294 53.4986 47.6626 53.4986 46.2233C53.4986 44.784 52.3318 43.6173 50.8926 43.6173C49.4533 43.6173 48.2865 44.784 48.2865 46.2233C48.2865 47.6626 49.4533 48.8294 50.8926 48.8294Z" fill="#0999FF"/>
<path d="M29.257 48.8294C30.6963 48.8294 31.8631 47.6626 31.8631 46.2233C31.8631 44.784 30.6963 43.6173 29.257 43.6173C27.8177 43.6173 26.651 44.784 26.651 46.2233C26.651 47.6626 27.8177 48.8294 29.257 48.8294Z" fill="#0999FF"/>
<path d="M40.0407 66.1012L17.4347 53.0506V26.9427L40.0407 13.9057L62.6467 26.9563V53.0642L40.0407 66.1012ZM20.5633 52.4466L37.1903 62.0496L28.8768 47.6485L20.5633 52.4466ZM51.2793 47.6485L43.0064 61.9885L59.5589 52.4263L51.2793 47.6485ZM41.0994 41.7645V61.1266L49.4808 46.6034L41.0994 41.7645ZM30.6956 46.6034L39.0091 61.0045V41.8053L30.6956 46.6034ZM19.5317 31.4422V50.6414L27.8453 45.8433L19.5317 31.4422ZM52.3312 45.8433L60.5769 50.5939V31.5508L52.3312 45.8433ZM42.1513 39.9797L50.4988 44.7982L58.8463 30.336L42.1513 39.9797ZM21.3166 30.3971L29.6301 44.7982L37.9437 40.0001L21.3166 30.3971ZM22.3549 28.5918L38.982 38.1881V28.5918H22.3549ZM41.0723 28.5918V38.1881L57.6993 28.5918H41.0723ZM41.0723 26.5016H57.6993L41.0723 16.9054V26.5016ZM22.3549 26.5016H38.982V16.9054L22.3549 26.5016Z" fill="#0999FF"/>
<path d="M40 73.1455L11.2928 56.5727V23.4068L40 6.83398L68.7071 23.4068V56.5591L40 73.1455ZM13.3763 55.3647L40 70.7362L66.6169 55.3647V24.6283L40 9.25679L13.3763 24.6283V55.3647Z" fill="#0999FF"/>
</svg>
